<svg viewBox="0 0 1024 768" xmlns="http://www.w3.org/2000/svg" xmlns:xlink="http://www.w3.org/1999/xlink" stroke-linecap="square" stroke-miterlimit="10" fill="none" overflow="hidden"><clipPath id="p.0"><path d="M0 0 1024 0 1024 768 0 768 0 0Z"/></clipPath><g clip-path="url(#p.0)"><path d="M0 0 1024 0 1024 768 0 768Z" fill="#000000" fill-rule="evenodd" fill-opacity="0"/><path d="M81.5827 78.0013 161.331 78.0013 161.331 144.49 81.5827 144.49Z" fill="#674EA7" fill-rule="evenodd"/><path d="M81.5827 78.0013 161.331 78.0013 161.331 144.49 81.5827 144.49Z" stroke="#000000" stroke-linecap="butt" stroke-linejoin="round" fill-rule="evenodd"/><path d="M81.5827 83.5 280.039 83.5 280.039 138.996 81.5827 138.996Z" fill="#CC0000" fill-rule="evenodd"/><path d="M81.5827 83.5 280.039 83.5 280.039 138.996 81.5827 138.996Z" stroke="#000000" stroke-linecap="butt" stroke-linejoin="round" fill-rule="evenodd"/><path d="M81.5827 89.79 387.346 89.79 387.346 131.806 81.5827 131.806Z" fill="#6AA84F" fill-rule="evenodd"/><path d="M81.5827 89.79 387.346 89.79 387.346 131.806 81.5827 131.806Z" stroke="#000000" stroke-linecap="butt" stroke-linejoin="round" fill-rule="evenodd"/><path d="M5 58.4173 81.5669 58.4173 81.5669 158.512 5 158.512Z" fill="#CFE2F3" fill-rule="evenodd"/><path d="M5 58.4173 81.5669 58.4173 81.5669 158.512 5 158.512Z" stroke="#000000" stroke-linecap="butt" stroke-linejoin="round" fill-rule="evenodd"/><path d="M24.2031 102.025 25.9688 102.025 25.9688 109.744C25.9688 111.088 25.8177 112.155 25.5156 112.947 25.2135 113.739 24.6667 114.385 23.875 114.885 23.0833 115.374 22.0417 115.619 20.75 115.619 19.5 115.619 18.474 115.405 17.6719 114.978 16.8802 114.541 16.3125 113.916 15.9688 113.103 15.6354 112.28 15.4688 111.161 15.4688 109.744L15.4688 102.025 17.2344 102.025 17.2344 109.744C17.2344 110.9 17.3385 111.754 17.5469 112.306 17.7656 112.848 18.1354 113.27 18.6562 113.572 19.1875 113.874 19.8333 114.025 20.5938 114.025 21.8958 114.025 22.8229 113.728 23.375 113.135 23.9271 112.541 24.2031 111.411 24.2031 109.744L24.2031 102.025ZM28.3167 111.088 29.9729 110.947C30.0563 111.614 30.2386 112.161 30.5198 112.588 30.8115 113.015 31.2594 113.364 31.8636 113.635 32.4782 113.895 33.1657 114.025 33.9261 114.025 34.5927 114.025 35.1865 113.926 35.7073 113.728 36.2282 113.53 36.6136 113.26 36.8636 112.916 37.1136 112.562 37.2386 112.176 37.2386 111.76 37.2386 111.343 37.1136 110.978 36.8636 110.666 36.624 110.353 36.2282 110.088 35.6761 109.869 35.3115 109.734 34.5146 109.52 33.2854 109.228 32.0667 108.926 31.2125 108.645 30.7229 108.385 30.0771 108.051 29.5979 107.64 29.2854 107.15 28.9729 106.65 28.8167 106.093 28.8167 105.478 28.8167 104.812 29.0094 104.187 29.3948 103.603 29.7802 103.01 30.3375 102.562 31.0667 102.26 31.8063 101.957 32.624 101.806 33.5198 101.806 34.5094 101.806 35.3792 101.968 36.1292 102.291 36.8896 102.603 37.4729 103.072 37.8792 103.697 38.2854 104.312 38.5042 105.01 38.5354 105.791L36.8479 105.916C36.7542 105.072 36.4417 104.437 35.9104 104.01 35.3896 103.572 34.6188 103.353 33.5979 103.353 32.525 103.353 31.7438 103.551 31.2542 103.947 30.7646 104.343 30.5198 104.817 30.5198 105.369 30.5198 105.848 30.6969 106.239 31.0511 106.541 31.3844 106.853 32.2698 107.176 33.7073 107.51 35.1448 107.832 36.1292 108.114 36.6604 108.353 37.4417 108.707 38.0146 109.161 38.3792 109.713 38.7542 110.265 38.9417 110.9 38.9417 111.619 38.9417 112.327 38.7386 112.999 38.3323 113.635 37.9261 114.26 37.3427 114.749 36.5823 115.103 35.8219 115.447 34.9625 115.619 34.0042 115.619 32.7959 115.619 31.7802 115.442 30.9573 115.088 30.1448 114.734 29.5042 114.202 29.0354 113.494 28.5771 112.786 28.3375 111.984 28.3167 111.088ZM41.3853 115.385 41.3853 102.025 51.0415 102.025 51.0415 103.603 43.1665 103.603 43.1665 107.697 50.5415 107.697 50.5415 109.26 43.1665 109.26 43.1665 113.806 51.354 113.806 51.354 115.385 41.3853 115.385ZM53.8288 115.385 53.8288 102.025 59.7507 102.025C60.9382 102.025 61.8393 102.145 62.4538 102.385 63.0788 102.624 63.5736 103.051 63.9382 103.666 64.3132 104.27 64.5007 104.942 64.5007 105.681 64.5007 106.619 64.1934 107.416 63.5788 108.072 62.9643 108.718 62.0163 109.129 60.7351 109.306 61.2038 109.536 61.5632 109.76 61.8132 109.978 62.3236 110.447 62.808 111.036 63.2663 111.744L65.5945 115.385 63.3757 115.385 61.6101 112.603C61.0893 111.801 60.6622 111.192 60.3288 110.775 59.9955 110.348 59.6934 110.051 59.4226 109.885 59.1622 109.707 58.8965 109.588 58.6257 109.525 58.4278 109.473 58.0997 109.447 57.6413 109.447L55.5945 109.447 55.5945 115.385 53.8288 115.385ZM55.5945 107.931 59.3913 107.931C60.2038 107.931 60.834 107.848 61.282 107.681 61.7403 107.504 62.0893 107.234 62.3288 106.869 62.5684 106.504 62.6882 106.109 62.6882 105.681 62.6882 105.046 62.459 104.525 62.0007 104.119 61.5424 103.713 60.8132 103.51 59.8132 103.51L55.5945 103.51 55.5945 107.931Z" fill="#000000"/><path d="M501.517 58.4173 574.115 58.4173 574.115 158.512 501.517 158.512Z" fill="#CFE2F3" fill-rule="evenodd"/><path d="M501.517 58.4173 574.115 58.4173 574.115 158.512 501.517 158.512Z" stroke="#000000" stroke-linecap="butt" stroke-linejoin="round" fill-rule="evenodd"/><path d="M511.955 115.385 511.955 102.025 516.564 102.025C517.595 102.025 518.387 102.093 518.939 102.228 519.699 102.395 520.35 102.713 520.892 103.181 521.6 103.775 522.126 104.536 522.47 105.463 522.824 106.39 523.001 107.447 523.001 108.635 523.001 109.645 522.882 110.546 522.642 111.338 522.403 112.119 522.095 112.765 521.72 113.275 521.356 113.786 520.955 114.192 520.517 114.494 520.08 114.786 519.548 115.01 518.923 115.166 518.298 115.312 517.585 115.385 516.783 115.385L511.955 115.385ZM513.72 113.806 516.58 113.806C517.455 113.806 518.142 113.728 518.642 113.572 519.142 113.405 519.543 113.171 519.845 112.869 520.262 112.452 520.585 111.89 520.814 111.181 521.054 110.473 521.173 109.614 521.173 108.603 521.173 107.207 520.944 106.135 520.486 105.385 520.028 104.635 519.47 104.135 518.814 103.885 518.345 103.697 517.585 103.603 516.533 103.603L513.72 103.603 513.72 113.806ZM525.459 115.385 525.459 102.025 535.115 102.025 535.115 103.603 527.24 103.603 527.24 107.697 534.615 107.697 534.615 109.26 527.24 109.26 527.24 113.806 535.427 113.806 535.427 115.385 525.459 115.385ZM537.277 111.088 538.934 110.947C539.017 111.614 539.199 112.161 539.48 112.588 539.772 113.015 540.22 113.364 540.824 113.635 541.439 113.895 542.126 114.025 542.887 114.025 543.553 114.025 544.147 113.926 544.668 113.728 545.189 113.53 545.574 113.26 545.824 112.916 546.074 112.562 546.199 112.176 546.199 111.76 546.199 111.343 546.074 110.978 545.824 110.666 545.585 110.353 545.189 110.088 544.637 109.869 544.272 109.734 543.475 109.52 542.246 109.228 541.027 108.926 540.173 108.645 539.684 108.385 539.038 108.051 538.559 107.64 538.246 107.15 537.934 106.65 537.777 106.093 537.777 105.478 537.777 104.812 537.97 104.187 538.355 103.603 538.741 103.01 539.298 102.562 540.027 102.26 540.767 101.957 541.585 101.806 542.48 101.806 543.47 101.806 544.34 101.968 545.09 102.291 545.85 102.603 546.434 103.072 546.84 103.697 547.246 104.312 547.465 105.01 547.496 105.791L545.809 105.916C545.715 105.072 545.402 104.437 544.871 104.01 544.35 103.572 543.579 103.353 542.559 103.353 541.486 103.353 540.704 103.551 540.215 103.947 539.725 104.343 539.48 104.817 539.48 105.369 539.48 105.848 539.658 106.239 540.012 106.541 540.345 106.853 541.23 107.176 542.668 107.51 544.105 107.832 545.09 108.114 545.621 108.353 546.402 108.707 546.975 109.161 547.34 109.713 547.715 110.265 547.902 110.9 547.902 111.619 547.902 112.327 547.699 112.999 547.293 113.635 546.887 114.26 546.303 114.749 545.543 115.103 544.783 115.447 543.923 115.619 542.965 115.619 541.757 115.619 540.741 115.442 539.918 115.088 539.105 114.734 538.465 114.202 537.996 113.494 537.538 112.786 537.298 111.984 537.277 111.088ZM553.721 115.385 553.721 103.603 549.315 103.603 549.315 102.025 559.893 102.025 559.893 103.603 555.487 103.603 555.487 115.385 553.721 115.385Z" fill="#000000"/><path d="M81.5827 97.4593 501.52 97.4593 501.52 124.136 81.5827 124.136Z" fill="#FFF2CC" fill-rule="evenodd"/><path d="M81.5827 97.4593 501.52 97.4593 501.52 124.136 81.5827 124.136Z" stroke="#000000" stroke-linecap="butt" stroke-linejoin="round" fill-rule="evenodd"/><path d="M161.341 58.4173 198.16 58.4173 198.16 158.512 161.341 158.512Z" fill="#CFE2F3" fill-rule="evenodd"/><path d="M161.341 58.4173 198.16 58.4173 198.16 158.512 161.341 158.512Z" stroke="#000000" stroke-linecap="butt" stroke-linejoin="round" fill-rule="evenodd"/><path d="M170.31 93.3846 175.435 80.0252 177.341 80.0252 182.81 93.3846 180.794 93.3846 179.247 89.3377 173.654 89.3377 172.185 93.3846 170.31 93.3846ZM174.169 87.9002 178.701 87.9002 177.294 84.1971C176.878 83.0721 176.565 82.1502 176.357 81.4314 176.18 82.2856 175.94 83.1346 175.638 83.9783L174.169 87.9002Z" fill="#000000"/><path d="M280.031 58.4095 316.85 58.4095 316.85 158.504 280.031 158.504Z" fill="#CFE2F3" fill-rule="evenodd"/><path d="M280.031 58.4095 316.85 58.4095 316.85 158.504 280.031 158.504Z" stroke="#000000" stroke-linecap="butt" stroke-linejoin="round" fill-rule="evenodd"/><path d="M290.391 93.3767 290.391 80.0173 295.406 80.0173C296.427 80.0173 297.245 80.1527 297.86 80.4236 298.474 80.6944 298.953 81.1111 299.297 81.6736 299.651 82.2361 299.828 82.8246 299.828 83.4392 299.828 84.0121 299.672 84.5538 299.36 85.0642 299.058 85.5642 298.594 85.9652 297.969 86.2673 298.771 86.5069 299.391 86.9131 299.828 87.4861 300.266 88.059 300.485 88.7309 300.485 89.5017 300.485 90.1267 300.349 90.71 300.078 91.2517 299.818 91.7829 299.49 92.1944 299.094 92.4861 298.709 92.7777 298.224 93.0017 297.641 93.1579 297.058 93.3038 296.339 93.3767 295.485 93.3767L290.391 93.3767ZM292.172 85.6267 295.047 85.6267C295.839 85.6267 296.401 85.5798 296.735 85.4861 297.183 85.3506 297.521 85.1267 297.75 84.8142 297.979 84.5017 298.094 84.1111 298.094 83.6423 298.094 83.2048 297.985 82.8194 297.766 82.4861 297.558 82.1423 297.255 81.9079 296.86 81.7829 296.464 81.6579 295.787 81.5954 294.828 81.5954L292.172 81.5954 292.172 85.6267ZM292.172 91.7986 295.485 91.7986C296.058 91.7986 296.459 91.7777 296.688 91.7361 297.094 91.6631 297.433 91.5434 297.703 91.3767 297.985 91.1996 298.214 90.9496 298.391 90.6267 298.568 90.3038 298.656 89.9288 298.656 89.5017 298.656 89.0017 298.526 88.5694 298.266 88.2048 298.016 87.8402 297.662 87.585 297.203 87.4392 296.755 87.2829 296.104 87.2048 295.25 87.2048L292.172 87.2048 292.172 91.7986Z" fill="#000000"/><path d="M386.619 58.4095 423.438 58.4095 423.438 158.504 386.619 158.504Z" fill="#CFE2F3" fill-rule="evenodd"/><path d="M386.619 58.4095 423.438 58.4095 423.438 158.504 386.619 158.504Z" stroke="#000000" stroke-linecap="butt" stroke-linejoin="round" fill-rule="evenodd"/><path d="M406.588 88.6892 408.354 89.1423C407.979 90.5902 407.312 91.6996 406.354 92.4704 405.395 93.2309 404.218 93.6111 402.823 93.6111 401.385 93.6111 400.213 93.3194 399.307 92.7361 398.411 92.1423 397.724 91.2934 397.244 90.1892 396.776 89.0746 396.541 87.8767 396.541 86.5954 396.541 85.21 396.807 84.0017 397.338 82.9704 397.869 81.9288 398.625 81.1423 399.604 80.6111 400.593 80.0694 401.677 79.7986 402.854 79.7986 404.187 79.7986 405.307 80.1371 406.213 80.8142 407.13 81.4913 407.765 82.4496 408.119 83.6892L406.385 84.0954C406.073 83.1267 405.619 82.4236 405.026 81.9861 404.442 81.5381 403.708 81.3142 402.823 81.3142 401.791 81.3142 400.932 81.559 400.244 82.0486 399.557 82.5381 399.073 83.1996 398.791 84.0329 398.51 84.8559 398.369 85.71 398.369 86.5954 398.369 87.7309 398.536 88.7204 398.869 89.5642 399.203 90.4079 399.718 91.0434 400.416 91.4704 401.114 91.8871 401.869 92.0954 402.682 92.0954 403.672 92.0954 404.51 91.809 405.198 91.2361 405.885 90.6631 406.349 89.8142 406.588 88.6892Z" fill="#000000"/><path d="M313.197 89.9567 385.795 89.9567 385.795 131.972 313.197 131.972Z" fill="#000000" fill-rule="evenodd" fill-opacity="0"/><path d="M331.23 116.877 331.23 103.517 335.839 103.517C336.87 103.517 337.662 103.585 338.214 103.72 338.975 103.887 339.626 104.205 340.167 104.674 340.876 105.267 341.402 106.028 341.745 106.955 342.1 107.882 342.277 108.939 342.277 110.127 342.277 111.137 342.157 112.038 341.917 112.83 341.678 113.611 341.37 114.257 340.995 114.767 340.631 115.278 340.23 115.684 339.792 115.986 339.355 116.278 338.823 116.502 338.198 116.658 337.573 116.804 336.86 116.877 336.058 116.877L331.23 116.877ZM332.995 115.299 335.855 115.299C336.73 115.299 337.417 115.22 337.917 115.064 338.417 114.898 338.818 114.663 339.12 114.361 339.537 113.944 339.86 113.382 340.089 112.674 340.329 111.965 340.448 111.106 340.448 110.095 340.448 108.7 340.219 107.627 339.761 106.877 339.303 106.127 338.745 105.627 338.089 105.377 337.62 105.189 336.86 105.095 335.808 105.095L332.995 105.095 332.995 115.299ZM350.812 115.689C350.197 116.2 349.609 116.564 349.046 116.783 348.494 116.991 347.895 117.095 347.25 117.095 346.187 117.095 345.369 116.835 344.796 116.314 344.224 115.793 343.937 115.132 343.937 114.33 343.937 113.851 344.046 113.418 344.265 113.033 344.484 112.637 344.765 112.325 345.109 112.095 345.463 111.856 345.859 111.674 346.296 111.549 346.609 111.465 347.093 111.382 347.75 111.299 349.072 111.142 350.046 110.955 350.671 110.736 350.682 110.507 350.687 110.366 350.687 110.314 350.687 109.648 350.531 109.174 350.218 108.892 349.802 108.528 349.177 108.345 348.343 108.345 347.572 108.345 347.005 108.481 346.64 108.752 346.276 109.023 346.005 109.496 345.828 110.174L344.218 109.955C344.364 109.278 344.604 108.731 344.937 108.314 345.27 107.887 345.755 107.559 346.39 107.33 347.026 107.101 347.755 106.986 348.578 106.986 349.411 106.986 350.083 107.085 350.593 107.283 351.114 107.47 351.494 107.715 351.734 108.017 351.984 108.309 352.156 108.679 352.25 109.127 352.302 109.408 352.328 109.913 352.328 110.642L352.328 112.83C352.328 114.351 352.364 115.314 352.437 115.72 352.51 116.116 352.645 116.502 352.843 116.877L351.14 116.877C350.963 116.533 350.854 116.137 350.812 115.689ZM350.671 112.017C350.078 112.267 349.187 112.476 348 112.642 347.322 112.736 346.843 112.845 346.562 112.97 346.281 113.095 346.062 113.273 345.906 113.502 345.76 113.731 345.687 113.991 345.687 114.283 345.687 114.72 345.854 115.085 346.187 115.377 346.52 115.668 347.005 115.814 347.64 115.814 348.265 115.814 348.822 115.679 349.312 115.408 349.812 115.127 350.177 114.746 350.406 114.267 350.583 113.892 350.671 113.345 350.671 112.627L350.671 112.017ZM358.453 115.408 358.688 116.861C358.229 116.955 357.818 117.002 357.453 117.002 356.86 117.002 356.396 116.908 356.063 116.72 355.74 116.533 355.511 116.288 355.375 115.986 355.24 115.674 355.172 115.028 355.172 114.049L355.172 108.47 353.969 108.47 353.969 107.205 355.172 107.205 355.172 104.814 356.797 103.83 356.797 107.205 358.453 107.205 358.453 108.47 356.797 108.47 356.797 114.142C356.797 114.601 356.823 114.898 356.875 115.033 356.938 115.168 357.032 115.278 357.157 115.361 357.292 115.434 357.485 115.47 357.735 115.47 357.912 115.47 358.151 115.45 358.453 115.408ZM366.371 115.689C365.756 116.2 365.168 116.564 364.605 116.783 364.053 116.991 363.454 117.095 362.809 117.095 361.746 117.095 360.928 116.835 360.355 116.314 359.783 115.793 359.496 115.132 359.496 114.33 359.496 113.851 359.605 113.418 359.824 113.033 360.043 112.637 360.324 112.325 360.668 112.095 361.022 111.856 361.418 111.674 361.855 111.549 362.168 111.465 362.652 111.382 363.309 111.299 364.631 111.142 365.605 110.955 366.23 110.736 366.241 110.507 366.246 110.366 366.246 110.314 366.246 109.648 366.09 109.174 365.777 108.892 365.361 108.528 364.736 108.345 363.902 108.345 363.131 108.345 362.564 108.481 362.199 108.752 361.835 109.023 361.564 109.496 361.387 110.174L359.777 109.955C359.923 109.278 360.163 108.731 360.496 108.314 360.829 107.887 361.314 107.559 361.949 107.33 362.585 107.101 363.314 106.986 364.137 106.986 364.97 106.986 365.642 107.085 366.152 107.283 366.673 107.47 367.053 107.715 367.293 108.017 367.543 108.309 367.715 108.679 367.809 109.127 367.861 109.408 367.887 109.913 367.887 110.642L367.887 112.83C367.887 114.351 367.923 115.314 367.996 115.72 368.069 116.116 368.204 116.502 368.402 116.877L366.699 116.877C366.522 116.533 366.413 116.137 366.371 115.689ZM366.23 112.017C365.637 112.267 364.746 112.476 363.559 112.642 362.881 112.736 362.402 112.845 362.121 112.97 361.84 113.095 361.621 113.273 361.465 113.502 361.319 113.731 361.246 113.991 361.246 114.283 361.246 114.72 361.413 115.085 361.746 115.377 362.079 115.668 362.564 115.814 363.199 115.814 363.824 115.814 364.381 115.679 364.871 115.408 365.371 115.127 365.736 114.746 365.965 114.267 366.142 113.892 366.23 113.345 366.23 112.627L366.23 112.017Z" fill="#000000"/><path d="M85.1627 91.4173 157.761 91.4173 157.761 133.433 85.1627 133.433Z" fill="#000000" fill-rule="evenodd" fill-opacity="0"/><path d="M103.196 118.337 103.196 104.978 107.805 104.978C108.836 104.978 109.628 105.046 110.18 105.181 110.94 105.348 111.591 105.665 112.133 106.134 112.841 106.728 113.367 107.488 113.711 108.415 114.065 109.343 114.242 110.4 114.242 111.587 114.242 112.598 114.123 113.499 113.883 114.29 113.644 115.072 113.336 115.718 112.961 116.228 112.597 116.738 112.196 117.145 111.758 117.447 111.321 117.738 110.789 117.962 110.164 118.119 109.539 118.264 108.826 118.337 108.024 118.337L103.196 118.337ZM104.961 116.759 107.821 116.759C108.696 116.759 109.383 116.681 109.883 116.525 110.383 116.358 110.784 116.124 111.086 115.822 111.503 115.405 111.826 114.843 112.055 114.134 112.295 113.426 112.414 112.566 112.414 111.556 112.414 110.16 112.185 109.087 111.727 108.337 111.269 107.587 110.711 107.087 110.055 106.837 109.586 106.65 108.826 106.556 107.774 106.556L104.961 106.556 104.961 116.759ZM122.778 117.15C122.163 117.66 121.575 118.025 121.012 118.244 120.46 118.452 119.861 118.556 119.215 118.556 118.153 118.556 117.335 118.296 116.762 117.775 116.189 117.254 115.903 116.593 115.903 115.79 115.903 115.311 116.012 114.879 116.231 114.494 116.45 114.098 116.731 113.785 117.075 113.556 117.429 113.316 117.825 113.134 118.262 113.009 118.575 112.926 119.059 112.843 119.715 112.759 121.038 112.603 122.012 112.415 122.637 112.197 122.648 111.968 122.653 111.827 122.653 111.775 122.653 111.108 122.497 110.634 122.184 110.353 121.768 109.988 121.143 109.806 120.309 109.806 119.538 109.806 118.971 109.941 118.606 110.212 118.241 110.483 117.971 110.957 117.794 111.634L116.184 111.415C116.33 110.738 116.57 110.191 116.903 109.775 117.236 109.348 117.721 109.02 118.356 108.79 118.991 108.561 119.721 108.447 120.544 108.447 121.377 108.447 122.049 108.546 122.559 108.744 123.08 108.931 123.46 109.176 123.7 109.478 123.95 109.77 124.122 110.139 124.215 110.587 124.268 110.869 124.294 111.374 124.294 112.103L124.294 114.29C124.294 115.811 124.33 116.775 124.403 117.181 124.476 117.577 124.611 117.962 124.809 118.337L123.106 118.337C122.929 117.994 122.82 117.598 122.778 117.15ZM122.637 113.478C122.044 113.728 121.153 113.936 119.965 114.103 119.288 114.197 118.809 114.306 118.528 114.431 118.247 114.556 118.028 114.733 117.872 114.962 117.726 115.191 117.653 115.452 117.653 115.744 117.653 116.181 117.82 116.546 118.153 116.837 118.486 117.129 118.971 117.275 119.606 117.275 120.231 117.275 120.788 117.139 121.278 116.869 121.778 116.587 122.143 116.207 122.372 115.728 122.549 115.353 122.637 114.806 122.637 114.087L122.637 113.478ZM130.419 116.869 130.654 118.322C130.195 118.415 129.784 118.462 129.419 118.462 128.826 118.462 128.362 118.369 128.029 118.181 127.706 117.994 127.477 117.749 127.341 117.447 127.206 117.134 127.138 116.488 127.138 115.509L127.138 109.931 125.935 109.931 125.935 108.665 127.138 108.665 127.138 106.275 128.763 105.29 128.763 108.665 130.419 108.665 130.419 109.931 128.763 109.931 128.763 115.603C128.763 116.061 128.789 116.358 128.841 116.494 128.904 116.629 128.997 116.738 129.122 116.822 129.258 116.895 129.451 116.931 129.701 116.931 129.878 116.931 130.117 116.91 130.419 116.869ZM138.337 117.15C137.722 117.66 137.134 118.025 136.571 118.244 136.019 118.452 135.42 118.556 134.774 118.556 133.712 118.556 132.894 118.296 132.321 117.775 131.748 117.254 131.462 116.593 131.462 115.79 131.462 115.311 131.571 114.879 131.79 114.494 132.009 114.098 132.29 113.785 132.634 113.556 132.988 113.316 133.384 113.134 133.821 113.009 134.134 112.926 134.618 112.843 135.274 112.759 136.597 112.603 137.571 112.415 138.196 112.197 138.207 111.968 138.212 111.827 138.212 111.775 138.212 111.108 138.056 110.634 137.743 110.353 137.327 109.988 136.702 109.806 135.868 109.806 135.097 109.806 134.53 109.941 134.165 110.212 133.8 110.483 133.53 110.957 133.353 111.634L131.743 111.415C131.889 110.738 132.129 110.191 132.462 109.775 132.795 109.348 133.28 109.02 133.915 108.79 134.55 108.561 135.28 108.447 136.103 108.447 136.936 108.447 137.608 108.546 138.118 108.744 138.639 108.931 139.019 109.176 139.259 109.478 139.509 109.77 139.681 110.139 139.774 110.587 139.827 110.869 139.853 111.374 139.853 112.103L139.853 114.29C139.853 115.811 139.889 116.775 139.962 117.181 140.035 117.577 140.17 117.962 140.368 118.337L138.665 118.337C138.488 117.994 138.379 117.598 138.337 117.15ZM138.196 113.478C137.603 113.728 136.712 113.936 135.524 114.103 134.847 114.197 134.368 114.306 134.087 114.431 133.806 114.556 133.587 114.733 133.431 114.962 133.285 115.191 133.212 115.452 133.212 115.744 133.212 116.181 133.379 116.546 133.712 116.837 134.045 117.129 134.53 117.275 135.165 117.275 135.79 117.275 136.347 117.139 136.837 116.869 137.337 116.587 137.702 116.207 137.931 115.728 138.108 115.353 138.196 114.806 138.196 114.087L138.196 113.478Z" fill="#000000"/><path d="M199.449 91.4252 279.197 91.4252 279.197 133.441 199.449 133.441Z" fill="#000000" fill-rule="evenodd" fill-opacity="0"/><path d="M221.057 118.345 221.057 104.986 225.666 104.986C226.697 104.986 227.489 105.054 228.041 105.189 228.801 105.356 229.452 105.673 229.994 106.142 230.702 106.736 231.229 107.496 231.572 108.423 231.926 109.35 232.104 110.408 232.104 111.595 232.104 112.606 231.984 113.507 231.744 114.298 231.505 115.08 231.197 115.725 230.822 116.236 230.458 116.746 230.057 117.152 229.619 117.455 229.182 117.746 228.65 117.97 228.025 118.126 227.4 118.272 226.687 118.345 225.885 118.345L221.057 118.345ZM222.822 116.767 225.682 116.767C226.557 116.767 227.244 116.689 227.744 116.533 228.244 116.366 228.645 116.132 228.947 115.83 229.364 115.413 229.687 114.85 229.916 114.142 230.156 113.434 230.275 112.574 230.275 111.564 230.275 110.168 230.046 109.095 229.588 108.345 229.13 107.595 228.572 107.095 227.916 106.845 227.447 106.658 226.687 106.564 225.635 106.564L222.822 106.564 222.822 116.767ZM240.639 117.158C240.024 117.668 239.436 118.033 238.873 118.251 238.321 118.46 237.722 118.564 237.076 118.564 236.014 118.564 235.196 118.304 234.623 117.783 234.05 117.262 233.764 116.6 233.764 115.798 233.764 115.319 233.873 114.887 234.092 114.501 234.311 114.106 234.592 113.793 234.936 113.564 235.29 113.324 235.686 113.142 236.123 113.017 236.436 112.934 236.92 112.85 237.576 112.767 238.899 112.611 239.873 112.423 240.498 112.205 240.509 111.975 240.514 111.835 240.514 111.783 240.514 111.116 240.358 110.642 240.045 110.361 239.629 109.996 239.004 109.814 238.17 109.814 237.399 109.814 236.832 109.949 236.467 110.22 236.102 110.491 235.832 110.965 235.655 111.642L234.045 111.423C234.191 110.746 234.431 110.199 234.764 109.783 235.097 109.356 235.582 109.027 236.217 108.798 236.852 108.569 237.582 108.455 238.405 108.455 239.238 108.455 239.91 108.554 240.42 108.751 240.941 108.939 241.321 109.184 241.561 109.486 241.811 109.777 241.983 110.147 242.076 110.595 242.129 110.876 242.155 111.382 242.155 112.111L242.155 114.298C242.155 115.819 242.191 116.783 242.264 117.189 242.337 117.585 242.472 117.97 242.67 118.345L240.967 118.345C240.79 118.001 240.681 117.606 240.639 117.158ZM240.498 113.486C239.905 113.736 239.014 113.944 237.826 114.111 237.149 114.205 236.67 114.314 236.389 114.439 236.108 114.564 235.889 114.741 235.733 114.97 235.587 115.199 235.514 115.46 235.514 115.751 235.514 116.189 235.681 116.554 236.014 116.845 236.347 117.137 236.832 117.283 237.467 117.283 238.092 117.283 238.649 117.147 239.139 116.876 239.639 116.595 240.004 116.215 240.233 115.736 240.41 115.361 240.498 114.814 240.498 114.095L240.498 113.486ZM248.28 116.876 248.515 118.33C248.056 118.423 247.645 118.47 247.28 118.47 246.687 118.47 246.223 118.376 245.89 118.189 245.567 118.001 245.338 117.757 245.202 117.455 245.067 117.142 244.999 116.496 244.999 115.517L244.999 109.939 243.796 109.939 243.796 108.673 244.999 108.673 244.999 106.283 246.624 105.298 246.624 108.673 248.28 108.673 248.28 109.939 246.624 109.939 246.624 115.611C246.624 116.069 246.65 116.366 246.702 116.501 246.765 116.637 246.858 116.746 246.983 116.83 247.119 116.902 247.312 116.939 247.562 116.939 247.739 116.939 247.978 116.918 248.28 116.876ZM256.198 117.158C255.583 117.668 254.995 118.033 254.432 118.251 253.88 118.46 253.281 118.564 252.635 118.564 251.573 118.564 250.755 118.304 250.182 117.783 249.609 117.262 249.323 116.6 249.323 115.798 249.323 115.319 249.432 114.887 249.651 114.501 249.87 114.106 250.151 113.793 250.495 113.564 250.849 113.324 251.245 113.142 251.682 113.017 251.995 112.934 252.479 112.85 253.135 112.767 254.458 112.611 255.432 112.423 256.057 112.205 256.068 111.975 256.073 111.835 256.073 111.783 256.073 111.116 255.917 110.642 255.604 110.361 255.188 109.996 254.563 109.814 253.729 109.814 252.958 109.814 252.391 109.949 252.026 110.22 251.662 110.491 251.391 110.965 251.214 111.642L249.604 111.423C249.75 110.746 249.99 110.199 250.323 109.783 250.656 109.356 251.141 109.027 251.776 108.798 252.412 108.569 253.141 108.455 253.964 108.455 254.797 108.455 255.469 108.554 255.979 108.751 256.5 108.939 256.88 109.184 257.12 109.486 257.37 109.777 257.542 110.147 257.635 110.595 257.688 110.876 257.714 111.382 257.714 112.111L257.714 114.298C257.714 115.819 257.75 116.783 257.823 117.189 257.896 117.585 258.031 117.97 258.229 118.345L256.526 118.345C256.349 118.001 256.24 117.606 256.198 117.158ZM256.057 113.486C255.464 113.736 254.573 113.944 253.385 114.111 252.708 114.205 252.229 114.314 251.948 114.439 251.667 114.564 251.448 114.741 251.292 114.97 251.146 115.199 251.073 115.46 251.073 115.751 251.073 116.189 251.24 116.554 251.573 116.845 251.906 117.137 252.391 117.283 253.026 117.283 253.651 117.283 254.208 117.147 254.698 116.876 255.198 116.595 255.563 116.215 255.792 115.736 255.969 115.361 256.057 114.814 256.057 114.095L256.057 113.486Z" fill="#000000"/><path d="M426.798 91.4252 499.396 91.4252 499.396 133.441 426.798 133.441Z" fill="#000000" fill-rule="evenodd" fill-opacity="0"/><path d="M444.831 118.345 444.831 104.986 449.44 104.986C450.471 104.986 451.263 105.054 451.815 105.189 452.576 105.356 453.227 105.673 453.768 106.142 454.477 106.736 455.003 107.496 455.346 108.423 455.701 109.35 455.878 110.408 455.878 111.595 455.878 112.606 455.758 113.507 455.518 114.298 455.279 115.08 454.971 115.725 454.596 116.236 454.232 116.746 453.831 117.152 453.393 117.455 452.956 117.746 452.425 117.97 451.8 118.126 451.175 118.272 450.461 118.345 449.659 118.345L444.831 118.345ZM446.596 116.767 449.456 116.767C450.331 116.767 451.018 116.689 451.518 116.533 452.018 116.366 452.419 116.132 452.721 115.83 453.138 115.413 453.461 114.85 453.69 114.142 453.93 113.434 454.05 112.574 454.05 111.564 454.05 110.168 453.82 109.095 453.362 108.345 452.904 107.595 452.346 107.095 451.69 106.845 451.221 106.658 450.461 106.564 449.409 106.564L446.596 106.564 446.596 116.767ZM464.413 117.158C463.798 117.668 463.21 118.033 462.647 118.251 462.095 118.46 461.496 118.564 460.851 118.564 459.788 118.564 458.97 118.304 458.397 117.783 457.825 117.262 457.538 116.6 457.538 115.798 457.538 115.319 457.647 114.887 457.866 114.501 458.085 114.106 458.366 113.793 458.71 113.564 459.064 113.324 459.46 113.142 459.897 113.017 460.21 112.934 460.694 112.85 461.351 112.767 462.673 112.611 463.647 112.423 464.272 112.205 464.283 111.975 464.288 111.835 464.288 111.783 464.288 111.116 464.132 110.642 463.819 110.361 463.403 109.996 462.778 109.814 461.944 109.814 461.173 109.814 460.606 109.949 460.241 110.22 459.877 110.491 459.606 110.965 459.429 111.642L457.819 111.423C457.965 110.746 458.205 110.199 458.538 109.783 458.871 109.356 459.356 109.027 459.991 108.798 460.627 108.569 461.356 108.455 462.179 108.455 463.012 108.455 463.684 108.554 464.194 108.751 464.715 108.939 465.095 109.184 465.335 109.486 465.585 109.777 465.757 110.147 465.851 110.595 465.903 110.876 465.929 111.382 465.929 112.111L465.929 114.298C465.929 115.819 465.965 116.783 466.038 117.189 466.111 117.585 466.246 117.97 466.444 118.345L464.741 118.345C464.564 118.001 464.455 117.606 464.413 117.158ZM464.272 113.486C463.679 113.736 462.788 113.944 461.601 114.111 460.923 114.205 460.444 114.314 460.163 114.439 459.882 114.564 459.663 114.741 459.507 114.97 459.361 115.199 459.288 115.46 459.288 115.751 459.288 116.189 459.455 116.554 459.788 116.845 460.121 117.137 460.606 117.283 461.241 117.283 461.866 117.283 462.423 117.147 462.913 116.876 463.413 116.595 463.778 116.215 464.007 115.736 464.184 115.361 464.272 114.814 464.272 114.095L464.272 113.486ZM472.054 116.876 472.289 118.33C471.83 118.423 471.419 118.47 471.054 118.47 470.461 118.47 469.997 118.376 469.664 118.189 469.341 118.001 469.112 117.757 468.976 117.455 468.841 117.142 468.773 116.496 468.773 115.517L468.773 109.939 467.57 109.939 467.57 108.673 468.773 108.673 468.773 106.283 470.398 105.298 470.398 108.673 472.054 108.673 472.054 109.939 470.398 109.939 470.398 115.611C470.398 116.069 470.424 116.366 470.476 116.501 470.539 116.637 470.633 116.746 470.758 116.83 470.893 116.902 471.086 116.939 471.336 116.939 471.513 116.939 471.752 116.918 472.054 116.876ZM479.972 117.158C479.358 117.668 478.769 118.033 478.206 118.251 477.654 118.46 477.055 118.564 476.41 118.564 475.347 118.564 474.529 118.304 473.956 117.783 473.384 117.262 473.097 116.6 473.097 115.798 473.097 115.319 473.206 114.887 473.425 114.501 473.644 114.106 473.925 113.793 474.269 113.564 474.623 113.324 475.019 113.142 475.456 113.017 475.769 112.934 476.253 112.85 476.91 112.767 478.233 112.611 479.206 112.423 479.831 112.205 479.842 111.975 479.847 111.835 479.847 111.783 479.847 111.116 479.691 110.642 479.378 110.361 478.962 109.996 478.337 109.814 477.503 109.814 476.733 109.814 476.165 109.949 475.8 110.22 475.436 110.491 475.165 110.965 474.988 111.642L473.378 111.423C473.524 110.746 473.764 110.199 474.097 109.783 474.43 109.356 474.915 109.027 475.55 108.798 476.186 108.569 476.915 108.455 477.738 108.455 478.571 108.455 479.243 108.554 479.753 108.751 480.274 108.939 480.654 109.184 480.894 109.486 481.144 109.777 481.316 110.147 481.41 110.595 481.462 110.876 481.488 111.382 481.488 112.111L481.488 114.298C481.488 115.819 481.524 116.783 481.597 117.189 481.67 117.585 481.805 117.97 482.003 118.345L480.3 118.345C480.123 118.001 480.014 117.606 479.972 117.158ZM479.831 113.486C479.238 113.736 478.347 113.944 477.16 114.111 476.483 114.205 476.003 114.314 475.722 114.439 475.441 114.564 475.222 114.741 475.066 114.97 474.92 115.199 474.847 115.46 474.847 115.751 474.847 116.189 475.014 116.554 475.347 116.845 475.68 117.137 476.165 117.283 476.8 117.283 477.425 117.283 477.983 117.147 478.472 116.876 478.972 116.595 479.337 116.215 479.566 115.736 479.743 115.361 479.831 114.814 479.831 114.095L479.831 113.486Z" fill="#000000"/><path d="M144.512 14.5118 217.11 14.5118 217.11 56.5276 144.512 56.5276Z" fill="#000000" fill-rule="evenodd" fill-opacity="0"/><path d="M162.573 36.1974 162.573 34.6193 168.229 34.6193 168.229 39.5724C167.365 40.2704 166.469 40.7964 165.542 41.1506 164.625 41.4943 163.677 41.6662 162.698 41.6662 161.385 41.6662 160.193 41.3849 159.12 40.8224 158.047 40.2599 157.24 39.4474 156.698 38.3849 156.156 37.3224 155.885 36.1349 155.885 34.8224 155.885 33.5204 156.156 32.3068 156.698 31.1818 157.24 30.0568 158.021 29.2235 159.042 28.6818 160.062 28.1297 161.234 27.8537 162.557 27.8537 163.526 27.8537 164.401 28.0099 165.182 28.3224 165.964 28.6349 166.573 29.0724 167.01 29.6349 167.458 30.187 167.797 30.911 168.026 31.8068L166.432 32.2443C166.234 31.5672 165.984 31.036 165.682 30.6506 165.391 30.2547 164.969 29.9422 164.417 29.7131 163.865 29.4839 163.25 29.3693 162.573 29.3693 161.771 29.3693 161.073 29.4943 160.479 29.7443 159.885 29.9839 159.406 30.3068 159.042 30.7131 158.687 31.1089 158.411 31.5464 158.214 32.0256 157.87 32.8485 157.698 33.7443 157.698 34.7131 157.698 35.9006 157.901 36.8954 158.307 37.6974 158.724 38.4995 159.323 39.0985 160.104 39.4943 160.885 39.8797 161.719 40.0724 162.604 40.0724 163.365 40.0724 164.109 39.9266 164.839 39.6349 165.568 39.3329 166.12 39.0151 166.495 38.6818L166.495 36.1974 162.573 36.1974ZM176.959 41.4318 176.959 40.0099C176.209 41.1037 175.188 41.6506 173.897 41.6506 173.324 41.6506 172.787 41.5412 172.287 41.3224 171.798 41.1037 171.433 40.8276 171.194 40.4943 170.954 40.161 170.787 39.7547 170.694 39.2756 170.621 38.9631 170.584 38.4526 170.584 37.7443L170.584 31.7599 172.225 31.7599 172.225 37.1193C172.225 37.9735 172.261 38.5516 172.334 38.8537 172.438 39.2808 172.657 39.6193 172.991 39.8693 173.324 40.1193 173.735 40.2443 174.225 40.2443 174.715 40.2443 175.173 40.1193 175.6 39.8693 176.037 39.6089 176.345 39.2651 176.522 38.8381 176.699 38.4006 176.787 37.7704 176.787 36.9474L176.787 31.7599 178.428 31.7599 178.428 41.4318 176.959 41.4318ZM187.319 40.2443C186.705 40.7547 186.116 41.1193 185.554 41.3381 185.002 41.5464 184.403 41.6506 183.757 41.6506 182.694 41.6506 181.877 41.3901 181.304 40.8693 180.731 40.3485 180.444 39.687 180.444 38.8849 180.444 38.4058 180.554 37.9735 180.773 37.5881 180.991 37.1922 181.273 36.8797 181.616 36.6506 181.97 36.411 182.366 36.2287 182.804 36.1037 183.116 36.0204 183.601 35.937 184.257 35.8537 185.58 35.6974 186.554 35.5099 187.179 35.2912 187.189 35.062 187.194 34.9214 187.194 34.8693 187.194 34.2026 187.038 33.7287 186.726 33.4474 186.309 33.0829 185.684 32.9006 184.851 32.9006 184.08 32.9006 183.512 33.036 183.148 33.3068 182.783 33.5776 182.512 34.0516 182.335 34.7287L180.726 34.5099C180.871 33.8329 181.111 33.286 181.444 32.8693 181.778 32.4422 182.262 32.1141 182.898 31.8849 183.533 31.6558 184.262 31.5412 185.085 31.5412 185.918 31.5412 186.59 31.6401 187.101 31.8381 187.621 32.0256 188.002 32.2704 188.241 32.5724 188.491 32.8641 188.663 33.2339 188.757 33.6818 188.809 33.9631 188.835 34.4683 188.835 35.1974L188.835 37.3849C188.835 38.9058 188.871 39.8693 188.944 40.2756 189.017 40.6714 189.153 41.0568 189.351 41.4318L187.648 41.4318C187.47 41.0881 187.361 40.6922 187.319 40.2443ZM187.179 36.5724C186.585 36.8224 185.694 37.0308 184.507 37.1974 183.83 37.2912 183.351 37.4006 183.069 37.5256 182.788 37.6506 182.569 37.8276 182.413 38.0568 182.267 38.286 182.194 38.5464 182.194 38.8381 182.194 39.2756 182.361 39.6401 182.694 39.9318 183.028 40.2235 183.512 40.3693 184.148 40.3693 184.773 40.3693 185.33 40.2339 185.819 39.9631 186.319 39.6818 186.684 39.3016 186.913 38.8224 187.09 38.4474 187.179 37.9006 187.179 37.1818L187.179 36.5724ZM191.367 41.4318 191.367 31.7599 192.836 31.7599 192.836 33.2287C193.211 32.5412 193.555 32.0881 193.867 31.8693 194.19 31.6506 194.544 31.5412 194.93 31.5412 195.482 31.5412 196.044 31.7183 196.617 32.0724L196.055 33.5881C195.648 33.3485 195.247 33.2287 194.851 33.2287 194.487 33.2287 194.164 33.3381 193.883 33.5568 193.601 33.7756 193.398 34.0724 193.273 34.4474 193.086 35.0308 192.992 35.6714 192.992 36.3693L192.992 41.4318 191.367 41.4318ZM203.861 41.4318 203.861 40.2131C203.257 41.1714 202.356 41.6506 201.158 41.6506 200.387 41.6506 199.679 41.437 199.033 41.0099 198.387 40.5829 197.887 39.9891 197.533 39.2287 197.179 38.4683 197.002 37.5933 197.002 36.6037 197.002 35.6349 197.163 34.7599 197.486 33.9787 197.809 33.187 198.288 32.5829 198.923 32.1662 199.569 31.7495 200.293 31.5412 201.095 31.5412 201.679 31.5412 202.194 31.6662 202.642 31.9162 203.101 32.1558 203.47 32.4735 203.752 32.8693L203.752 28.0724 205.392 28.0724 205.392 41.4318 203.861 41.4318ZM198.689 36.6037C198.689 37.8433 198.949 38.7704 199.47 39.3849 199.991 39.9995 200.606 40.3068 201.314 40.3068 202.033 40.3068 202.642 40.0151 203.142 39.4318 203.642 38.8381 203.892 37.9422 203.892 36.7443 203.892 35.4214 203.637 34.4526 203.127 33.8381 202.616 33.2131 201.986 32.9006 201.236 32.9006 200.517 32.9006 199.913 33.1974 199.423 33.7912 198.934 34.3849 198.689 35.3224 198.689 36.6037Z" fill="#000000"/><path d="M262.142 14.5118 334.74 14.5118 334.74 56.5276 262.142 56.5276Z" fill="#000000" fill-rule="evenodd" fill-opacity="0"/><path d="M276.061 41.4318 276.061 28.0724 281.983 28.0724C283.17 28.0724 284.071 28.1922 284.686 28.4318 285.311 28.6714 285.806 29.0985 286.17 29.7131 286.545 30.3172 286.733 30.9891 286.733 31.7287 286.733 32.6662 286.426 33.4631 285.811 34.1193 285.196 34.7651 284.249 35.1766 282.967 35.3537 283.436 35.5829 283.795 35.8068 284.045 36.0256 284.556 36.4943 285.04 37.0829 285.499 37.7912L287.827 41.4318 285.608 41.4318 283.842 38.6506C283.321 37.8485 282.894 37.2391 282.561 36.8224 282.228 36.3954 281.926 36.0985 281.655 35.9318 281.394 35.7547 281.129 35.6349 280.858 35.5724 280.66 35.5204 280.332 35.4943 279.874 35.4943L277.827 35.4943 277.827 41.4318 276.061 41.4318ZM277.827 33.9787 281.624 33.9787C282.436 33.9787 283.066 33.8954 283.514 33.7287 283.973 33.5516 284.321 33.2808 284.561 32.9162 284.801 32.5516 284.92 32.1558 284.92 31.7287 284.92 31.0933 284.691 30.5724 284.233 30.1662 283.775 29.7599 283.045 29.5568 282.045 29.5568L277.827 29.5568 277.827 33.9787ZM295.925 38.3224 297.612 38.5256C297.341 39.5151 296.846 40.286 296.128 40.8381 295.409 41.3797 294.487 41.6506 293.362 41.6506 291.945 41.6506 290.82 41.2183 289.987 40.3537 289.164 39.4787 288.753 38.2547 288.753 36.6818 288.753 35.0464 289.169 33.7808 290.003 32.8849 290.846 31.9891 291.935 31.5412 293.268 31.5412 294.56 31.5412 295.612 31.9839 296.425 32.8693 297.247 33.7443 297.659 34.9787 297.659 36.5724 297.659 36.6766 297.659 36.8224 297.659 37.0099L290.44 37.0099C290.503 38.0724 290.805 38.8901 291.346 39.4631 291.888 40.0256 292.56 40.3068 293.362 40.3068 293.966 40.3068 294.482 40.1506 294.909 39.8381 295.336 39.5151 295.675 39.0099 295.925 38.3224ZM290.534 35.6662 295.94 35.6662C295.867 34.8537 295.659 34.2443 295.315 33.8381 294.794 33.2026 294.117 32.8849 293.284 32.8849 292.534 32.8849 291.899 33.1401 291.378 33.6506 290.867 34.1506 290.586 34.8224 290.534 35.6662ZM299.628 41.4318 299.628 28.0724 301.269 28.0724 301.269 41.4318 299.628 41.4318ZM310.133 40.2443C309.518 40.7547 308.93 41.1193 308.367 41.3381 307.815 41.5464 307.216 41.6506 306.57 41.6506 305.508 41.6506 304.69 41.3901 304.117 40.8693 303.544 40.3485 303.258 39.687 303.258 38.8849 303.258 38.4058 303.367 37.9735 303.586 37.5881 303.805 37.1922 304.086 36.8797 304.43 36.6506 304.784 36.411 305.18 36.2287 305.617 36.1037 305.93 36.0204 306.414 35.937 307.07 35.8537 308.393 35.6974 309.367 35.5099 309.992 35.2912 310.002 35.062 310.008 34.9214 310.008 34.8693 310.008 34.2026 309.851 33.7287 309.539 33.4474 309.122 33.0829 308.497 32.9006 307.664 32.9006 306.893 32.9006 306.325 33.036 305.961 33.3068 305.596 33.5776 305.325 34.0516 305.148 34.7287L303.539 34.5099C303.685 33.8329 303.924 33.286 304.258 32.8693 304.591 32.4422 305.075 32.1141 305.711 31.8849 306.346 31.6558 307.075 31.5412 307.898 31.5412 308.732 31.5412 309.403 31.6401 309.914 31.8381 310.435 32.0256 310.815 32.2704 311.055 32.5724 311.305 32.8641 311.476 33.2339 311.57 33.6818 311.622 33.9631 311.648 34.4683 311.648 35.1974L311.648 37.3849C311.648 38.9058 311.685 39.8693 311.758 40.2756 311.831 40.6714 311.966 41.0568 312.164 41.4318L310.461 41.4318C310.284 41.0881 310.174 40.6922 310.133 40.2443ZM309.992 36.5724C309.398 36.8224 308.508 37.0308 307.32 37.1974 306.643 37.2912 306.164 37.4006 305.883 37.5256 305.601 37.6506 305.383 37.8276 305.226 38.0568 305.081 38.286 305.008 38.5464 305.008 38.8381 305.008 39.2756 305.174 39.6401 305.508 39.9318 305.841 40.2235 306.325 40.3693 306.961 40.3693 307.586 40.3693 308.143 40.2339 308.633 39.9631 309.133 39.6818 309.497 39.3016 309.726 38.8224 309.903 38.4474 309.992 37.9006 309.992 37.1818L309.992 36.5724ZM314.118 45.1506 313.93 43.6193C314.295 43.7131 314.607 43.7599 314.868 43.7599 315.232 43.7599 315.524 43.6974 315.743 43.5724 315.961 43.4579 316.144 43.2912 316.29 43.0724 316.394 42.9058 316.56 42.4995 316.79 41.8537 316.821 41.7599 316.868 41.6245 316.93 41.4474L313.258 31.7599 315.024 31.7599 317.04 37.3537C317.3 38.0724 317.534 38.8224 317.743 39.6037 317.93 38.8537 318.154 38.1193 318.415 37.4006L320.493 31.7599 322.133 31.7599 318.446 41.5881C318.05 42.661 317.743 43.3954 317.524 43.7912 317.232 44.3329 316.899 44.7287 316.524 44.9787 316.149 45.2287 315.701 45.3537 315.18 45.3537 314.857 45.3537 314.503 45.286 314.118 45.1506Z" fill="#000000"/><path d="M368.73 14.5118 441.328 14.5118 441.328 56.5276 368.73 56.5276Z" fill="#000000" fill-rule="evenodd" fill-opacity="0"/><path d="M390.948 41.4318 390.948 28.0724 400.604 28.0724 400.604 29.6506 392.729 29.6506 392.729 33.7443 400.104 33.7443 400.104 35.3068 392.729 35.3068 392.729 39.8537 400.916 39.8537 400.916 41.4318 390.948 41.4318ZM402.063 41.4318 405.594 36.4006 402.329 31.7599 404.376 31.7599 405.86 34.0256C406.141 34.4526 406.365 34.812 406.532 35.1037 406.803 34.7079 407.048 34.3537 407.266 34.0412L408.907 31.7599 410.86 31.7599 407.516 36.3068 411.11 41.4318 409.094 41.4318 407.11 38.4318 406.594 37.6193 404.048 41.4318 402.063 41.4318ZM412.485 29.9631 412.485 28.0724 414.126 28.0724 414.126 29.9631 412.485 29.9631ZM412.485 41.4318 412.485 31.7599 414.126 31.7599 414.126 41.4318 412.485 41.4318ZM420.208 39.9631 420.442 41.4162C419.984 41.5099 419.573 41.5568 419.208 41.5568 418.614 41.5568 418.151 41.4631 417.817 41.2756 417.494 41.0881 417.265 40.8433 417.13 40.5412 416.994 40.2287 416.927 39.5829 416.927 38.6037L416.927 33.0256 415.724 33.0256 415.724 31.7599 416.927 31.7599 416.927 29.3693 418.552 28.3849 418.552 31.7599 420.208 31.7599 420.208 33.0256 418.552 33.0256 418.552 38.6974C418.552 39.1558 418.578 39.4526 418.63 39.5881 418.692 39.7235 418.786 39.8329 418.911 39.9162 419.047 39.9891 419.239 40.0256 419.489 40.0256 419.666 40.0256 419.906 40.0047 420.208 39.9631Z" fill="#000000"/><path d="M278.084 207.501 357.832 207.501 357.832 222.997 278.084 222.997Z" fill="#674EA7" fill-rule="evenodd"/><path d="M278.084 207.501 357.832 207.501 357.832 222.997 278.084 222.997Z" stroke="#000000" stroke-linecap="butt" stroke-linejoin="round" fill-rule="evenodd"/><path d="M278.084 213 357.832 213 357.832 222.984 278.084 222.984Z" fill="#CC0000" fill-rule="evenodd"/><path d="M278.084 213 357.832 213 357.832 222.984 278.084 222.984Z" stroke="#000000" stroke-linecap="butt" stroke-linejoin="round" fill-rule="evenodd"/><path d="M278.084 217.79 357.832 217.79 357.832 222.987 278.084 222.987Z" fill="#6AA84F" fill-rule="evenodd"/><path d="M278.084 217.79 357.832 217.79 357.832 222.987 278.084 222.987Z" stroke="#000000" stroke-linecap="butt" stroke-linejoin="round" fill-rule="evenodd"/><path d="M337.341 196.409 528.333 196.409 528.333 233.575 337.341 233.575Z" fill="#000000" fill-rule="evenodd" fill-opacity="0"/><path d="M367.926 219.489 367.926 209.005 369.317 209.005 369.317 218.255 374.473 218.255 374.473 219.489 367.926 219.489ZM380.921 218.552C380.442 218.958 379.984 219.245 379.546 219.411 379.109 219.578 378.635 219.661 378.124 219.661 377.291 219.661 376.651 219.458 376.203 219.052 375.755 218.646 375.531 218.125 375.531 217.489 375.531 217.114 375.614 216.776 375.781 216.474 375.947 216.161 376.166 215.911 376.437 215.724 376.718 215.536 377.031 215.396 377.374 215.302 377.624 215.239 378.005 215.177 378.515 215.114 379.557 214.989 380.322 214.838 380.812 214.661 380.822 214.484 380.828 214.375 380.828 214.333 380.828 213.802 380.703 213.432 380.453 213.224 380.13 212.932 379.645 212.786 378.999 212.786 378.385 212.786 377.932 212.896 377.64 213.114 377.359 213.323 377.151 213.693 377.015 214.224L375.749 214.052C375.864 213.521 376.052 213.088 376.312 212.755 376.572 212.422 376.953 212.167 377.453 211.989 377.953 211.812 378.526 211.724 379.171 211.724 379.828 211.724 380.359 211.802 380.765 211.958 381.171 212.104 381.468 212.292 381.656 212.521 381.843 212.75 381.979 213.042 382.062 213.396 382.104 213.614 382.124 214.01 382.124 214.583L382.124 216.302C382.124 217.5 382.151 218.26 382.203 218.583 382.255 218.896 382.364 219.198 382.531 219.489L381.187 219.489C381.052 219.219 380.963 218.906 380.921 218.552ZM380.812 215.677C380.343 215.864 379.645 216.026 378.718 216.161 378.187 216.234 377.812 216.323 377.593 216.427 377.374 216.521 377.203 216.661 377.078 216.849 376.963 217.026 376.906 217.224 376.906 217.443 376.906 217.786 377.036 218.073 377.296 218.302 377.557 218.531 377.937 218.646 378.437 218.646 378.927 218.646 379.364 218.542 379.749 218.333 380.145 218.114 380.432 217.818 380.609 217.443 380.744 217.151 380.812 216.719 380.812 216.146L380.812 215.677ZM384.057 222.411 383.916 221.208C384.197 221.281 384.442 221.318 384.651 221.318 384.942 221.318 385.171 221.271 385.338 221.177 385.515 221.083 385.656 220.948 385.76 220.771 385.843 220.646 385.973 220.328 386.151 219.818 386.182 219.745 386.223 219.641 386.276 219.505L383.385 211.896 384.776 211.896 386.354 216.286C386.562 216.849 386.744 217.437 386.901 218.052 387.057 217.458 387.234 216.88 387.432 216.318L389.057 211.896 390.354 211.896 387.463 219.614C387.151 220.448 386.906 221.026 386.729 221.349 386.5 221.766 386.239 222.073 385.947 222.271 385.656 222.469 385.302 222.568 384.885 222.568 384.635 222.568 384.359 222.516 384.057 222.411ZM396.651 217.036 397.979 217.208C397.77 217.989 397.38 218.594 396.807 219.021 396.244 219.448 395.52 219.661 394.635 219.661 393.52 219.661 392.635 219.323 391.979 218.646 391.333 217.958 391.01 216.995 391.01 215.755 391.01 214.474 391.338 213.484 391.994 212.786 392.661 212.078 393.52 211.724 394.572 211.724 395.583 211.724 396.411 212.068 397.057 212.755 397.703 213.443 398.026 214.417 398.026 215.677 398.026 215.75 398.02 215.864 398.01 216.021L392.354 216.021C392.395 216.854 392.63 217.495 393.057 217.943 393.484 218.38 394.015 218.599 394.651 218.599 395.119 218.599 395.52 218.479 395.854 218.239 396.187 217.989 396.453 217.588 396.651 217.036ZM392.416 214.958 396.666 214.958C396.604 214.323 396.442 213.844 396.182 213.521 395.765 213.021 395.229 212.771 394.572 212.771 393.989 212.771 393.494 212.969 393.088 213.364 392.682 213.76 392.458 214.292 392.416 214.958ZM399.583 219.489 399.583 211.896 400.739 211.896 400.739 213.036C401.041 212.505 401.317 212.156 401.567 211.989 401.817 211.812 402.088 211.724 402.38 211.724 402.817 211.724 403.26 211.859 403.708 212.13L403.27 213.333C402.958 213.146 402.64 213.052 402.317 213.052 402.036 213.052 401.781 213.135 401.552 213.302 401.333 213.469 401.177 213.703 401.083 214.005 400.937 214.463 400.864 214.963 400.864 215.505L400.864 219.489 399.583 219.489ZM403.964 217.224 405.229 217.021C405.302 217.531 405.5 217.922 405.823 218.193 406.156 218.463 406.615 218.599 407.198 218.599 407.792 218.599 408.229 218.479 408.51 218.239 408.802 218 408.948 217.719 408.948 217.396 408.948 217.104 408.823 216.875 408.573 216.708 408.396 216.594 407.958 216.448 407.26 216.271 406.313 216.031 405.656 215.828 405.292 215.661 404.927 215.484 404.651 215.239 404.464 214.927 404.276 214.614 404.182 214.276 404.182 213.911 404.182 213.568 404.255 213.255 404.401 212.974 404.557 212.682 404.771 212.437 405.042 212.239 405.24 212.094 405.51 211.974 405.854 211.88 406.208 211.776 406.583 211.724 406.979 211.724 407.573 211.724 408.094 211.812 408.542 211.989 408.99 212.156 409.323 212.385 409.542 212.677 409.76 212.969 409.906 213.359 409.979 213.849L408.729 214.021C408.667 213.635 408.5 213.333 408.229 213.114 407.958 212.885 407.573 212.771 407.073 212.771 406.479 212.771 406.052 212.87 405.792 213.068 405.542 213.266 405.417 213.495 405.417 213.755 405.417 213.922 405.469 214.073 405.573 214.208 405.677 214.344 405.844 214.458 406.073 214.552 406.198 214.604 406.578 214.713 407.214 214.88 408.12 215.12 408.75 215.318 409.104 215.474 409.469 215.63 409.755 215.859 409.964 216.161 410.172 216.453 410.276 216.818 410.276 217.255 410.276 217.682 410.151 218.088 409.901 218.474 409.651 218.849 409.286 219.141 408.807 219.349 408.339 219.557 407.807 219.661 407.214 219.661 406.224 219.661 405.469 219.458 404.948 219.052 404.438 218.635 404.109 218.026 403.964 217.224ZM415.395 215.693C415.395 214.286 415.786 213.245 416.567 212.568 417.223 212.005 418.02 211.724 418.957 211.724 420.01 211.724 420.864 212.068 421.52 212.755 422.187 213.432 422.52 214.375 422.52 215.583 422.52 216.562 422.374 217.333 422.082 217.896 421.791 218.448 421.364 218.88 420.801 219.193 420.239 219.505 419.624 219.661 418.957 219.661 417.895 219.661 417.036 219.323 416.379 218.646 415.723 217.958 415.395 216.974 415.395 215.693ZM416.723 215.693C416.723 216.661 416.931 217.391 417.348 217.88 417.775 218.359 418.312 218.599 418.957 218.599 419.603 218.599 420.135 218.359 420.551 217.88 420.978 217.391 421.192 216.646 421.192 215.646 421.192 214.708 420.978 214 420.551 213.521 420.124 213.031 419.593 212.786 418.957 212.786 418.312 212.786 417.775 213.026 417.348 213.505 416.931 213.984 416.723 214.713 416.723 215.693ZM424.343 219.489 424.343 212.896 423.202 212.896 423.202 211.896 424.343 211.896 424.343 211.083C424.343 210.573 424.385 210.193 424.468 209.943 424.593 209.609 424.812 209.338 425.124 209.13 425.437 208.922 425.874 208.818 426.437 208.818 426.801 208.818 427.202 208.859 427.64 208.943L427.452 210.068C427.181 210.026 426.926 210.005 426.687 210.005 426.301 210.005 426.025 210.088 425.859 210.255 425.702 210.422 425.624 210.734 425.624 211.193L425.624 211.896 427.093 211.896 427.093 212.896 425.624 212.896 425.624 219.489 424.343 219.489ZM437.378 217.036 438.706 217.208C438.497 217.989 438.107 218.594 437.534 219.021 436.971 219.448 436.247 219.661 435.362 219.661 434.247 219.661 433.362 219.323 432.706 218.646 432.06 217.958 431.737 216.995 431.737 215.755 431.737 214.474 432.065 213.484 432.721 212.786 433.388 212.078 434.247 211.724 435.299 211.724 436.31 211.724 437.138 212.068 437.784 212.755 438.43 213.443 438.753 214.417 438.753 215.677 438.753 215.75 438.747 215.864 438.737 216.021L433.081 216.021C433.122 216.854 433.357 217.495 433.784 217.943 434.211 218.38 434.742 218.599 435.378 218.599 435.846 218.599 436.247 218.479 436.581 218.239 436.914 217.989 437.18 217.588 437.378 217.036ZM433.143 214.958 437.393 214.958C437.331 214.323 437.169 213.844 436.909 213.521 436.492 213.021 435.956 212.771 435.299 212.771 434.716 212.771 434.221 212.969 433.815 213.364 433.409 213.76 433.185 214.292 433.143 214.958ZM440.325 219.489 440.325 211.896 441.482 211.896 441.482 212.974C442.044 212.141 442.852 211.724 443.904 211.724 444.362 211.724 444.784 211.807 445.169 211.974 445.555 212.13 445.841 212.344 446.029 212.614 446.216 212.885 446.352 213.203 446.435 213.568 446.477 213.807 446.497 214.224 446.497 214.818L446.497 219.489 445.216 219.489 445.216 214.864C445.216 214.344 445.164 213.953 445.06 213.693 444.956 213.432 444.773 213.224 444.513 213.068 444.263 212.911 443.966 212.833 443.622 212.833 443.081 212.833 442.607 213.01 442.2 213.364 441.805 213.708 441.607 214.364 441.607 215.333L441.607 219.489 440.325 219.489ZM453.43 216.708 454.695 216.864C454.56 217.739 454.206 218.427 453.633 218.927 453.07 219.417 452.372 219.661 451.539 219.661 450.497 219.661 449.659 219.323 449.023 218.646 448.398 217.958 448.086 216.984 448.086 215.724 448.086 214.901 448.221 214.182 448.492 213.568 448.763 212.953 449.174 212.495 449.727 212.193 450.289 211.88 450.893 211.724 451.539 211.724 452.372 211.724 453.049 211.932 453.57 212.349 454.091 212.766 454.43 213.354 454.586 214.114L453.32 214.318C453.206 213.807 452.997 213.422 452.695 213.161 452.393 212.901 452.029 212.771 451.602 212.771 450.945 212.771 450.414 213.005 450.008 213.474 449.602 213.943 449.398 214.677 449.398 215.677 449.398 216.698 449.591 217.443 449.977 217.911 450.372 218.37 450.888 218.599 451.523 218.599 452.023 218.599 452.445 218.448 452.789 218.146 453.133 217.833 453.346 217.354 453.43 216.708ZM455.789 219.489 455.789 211.896 456.945 211.896 456.945 213.036C457.247 212.505 457.523 212.156 457.773 211.989 458.023 211.812 458.294 211.724 458.586 211.724 459.023 211.724 459.466 211.859 459.914 212.13L459.477 213.333C459.164 213.146 458.846 213.052 458.523 213.052 458.242 213.052 457.987 213.135 457.758 213.302 457.539 213.469 457.383 213.703 457.289 214.005 457.143 214.463 457.07 214.963 457.07 215.505L457.07 219.489 455.789 219.489ZM460.623 222.411 460.482 221.208C460.763 221.281 461.008 221.318 461.217 221.318 461.508 221.318 461.737 221.271 461.904 221.177 462.081 221.083 462.222 220.948 462.326 220.771 462.409 220.646 462.54 220.328 462.717 219.818 462.748 219.745 462.79 219.641 462.842 219.505L459.951 211.896 461.342 211.896 462.92 216.286C463.128 216.849 463.31 217.437 463.467 218.052 463.623 217.458 463.8 216.88 463.998 216.318L465.623 211.896 466.92 211.896 464.029 219.614C463.717 220.448 463.472 221.026 463.295 221.349 463.066 221.766 462.805 222.073 462.513 222.271 462.222 222.469 461.868 222.568 461.451 222.568 461.201 222.568 460.925 222.516 460.623 222.411ZM468.013 222.396 468.013 211.896 469.185 211.896 469.185 212.88C469.467 212.495 469.779 212.208 470.123 212.021 470.467 211.823 470.888 211.724 471.388 211.724 472.034 211.724 472.607 211.891 473.107 212.224 473.607 212.557 473.982 213.031 474.232 213.646 474.482 214.25 474.607 214.911 474.607 215.63 474.607 216.411 474.467 217.114 474.185 217.739 473.915 218.354 473.508 218.828 472.967 219.161 472.435 219.495 471.878 219.661 471.295 219.661 470.868 219.661 470.482 219.573 470.138 219.396 469.795 219.208 469.513 218.979 469.295 218.708L469.295 222.396 468.013 222.396ZM469.17 215.739C469.17 216.708 469.368 217.427 469.763 217.896 470.17 218.364 470.654 218.599 471.217 218.599 471.79 218.599 472.279 218.359 472.685 217.88 473.092 217.391 473.295 216.641 473.295 215.63 473.295 214.661 473.092 213.937 472.685 213.458 472.29 212.969 471.816 212.724 471.263 212.724 470.722 212.724 470.237 212.984 469.81 213.505 469.383 214.016 469.17 214.76 469.17 215.739ZM478.977 218.333 479.165 219.474C478.8 219.547 478.472 219.583 478.18 219.583 477.722 219.583 477.362 219.51 477.102 219.364 476.842 219.219 476.659 219.026 476.555 218.786 476.451 218.547 476.399 218.042 476.399 217.271L476.399 212.896 475.446 212.896 475.446 211.896 476.399 211.896 476.399 210.005 477.68 209.239 477.68 211.896 478.977 211.896 478.977 212.896 477.68 212.896 477.68 217.333C477.68 217.698 477.701 217.937 477.743 218.052 477.795 218.156 477.868 218.239 477.961 218.302 478.066 218.354 478.217 218.38 478.415 218.38 478.55 218.38 478.737 218.364 478.977 218.333ZM480.237 210.474 480.237 209.005 481.533 209.005 481.533 210.474 480.237 210.474ZM480.237 219.489 480.237 211.896 481.533 211.896 481.533 219.489 480.237 219.489ZM483.008 215.693C483.008 214.286 483.399 213.245 484.18 212.568 484.836 212.005 485.633 211.724 486.571 211.724 487.623 211.724 488.477 212.068 489.133 212.755 489.8 213.432 490.133 214.375 490.133 215.583 490.133 216.562 489.987 217.333 489.696 217.896 489.404 218.448 488.977 218.88 488.415 219.193 487.852 219.505 487.237 219.661 486.571 219.661 485.508 219.661 484.649 219.323 483.993 218.646 483.336 217.958 483.008 216.974 483.008 215.693ZM484.336 215.693C484.336 216.661 484.545 217.391 484.961 217.88 485.389 218.359 485.925 218.599 486.571 218.599 487.217 218.599 487.748 218.359 488.165 217.88 488.592 217.391 488.805 216.646 488.805 215.646 488.805 214.708 488.592 214 488.165 213.521 487.737 213.031 487.206 212.786 486.571 212.786 485.925 212.786 485.389 213.026 484.961 213.505 484.545 213.984 484.336 214.713 484.336 215.693ZM491.644 219.489 491.644 211.896 492.8 211.896 492.8 212.974C493.363 212.141 494.17 211.724 495.222 211.724 495.68 211.724 496.102 211.807 496.488 211.974 496.873 212.13 497.159 212.344 497.347 212.614 497.534 212.885 497.67 213.203 497.753 213.568 497.795 213.807 497.816 214.224 497.816 214.818L497.816 219.489 496.534 219.489 496.534 214.864C496.534 214.344 496.482 213.953 496.378 213.693 496.274 213.432 496.092 213.224 495.831 213.068 495.581 212.911 495.284 212.833 494.941 212.833 494.399 212.833 493.925 213.01 493.519 213.364 493.123 213.708 492.925 214.364 492.925 215.333L492.925 219.489 491.644 219.489Z" fill="#000000"/></g></svg>