<svg viewBox="0 0 1024 768" xmlns="http://www.w3.org/2000/svg" xmlns:xlink="http://www.w3.org/1999/xlink" stroke-linecap="square" stroke-miterlimit="10" fill="none" overflow="hidden"><clipPath id="p.0"><path d="M0 0 1024 0 1024 768 0 768 0 0Z"/></clipPath><g clip-path="url(#p.0)"><path d="M0 0 1024 0 1024 768 0 768Z" fill="#000000" fill-rule="evenodd" fill-opacity="0"/><path d="M82.832 231.929 82.832 231.929C82.832 227.694 86.2657 224.26 90.5015 224.26L121.178 224.26 121.178 224.26C123.212 224.26 125.163 225.068 126.601 226.506 128.04 227.944 128.848 229.895 128.848 231.929L128.848 262.606C128.848 266.842 125.414 270.276 121.178 270.276L90.5015 270.276C86.2657 270.276 82.832 266.842 82.832 262.606Z" fill="#CFE2F3" fill-rule="evenodd"/><path d="M82.832 231.929 82.832 231.929C82.832 227.694 86.2657 224.26 90.5015 224.26L121.178 224.26 121.178 224.26C123.212 224.26 125.163 225.068 126.601 226.506 128.04 227.944 128.848 229.895 128.848 231.929L128.848 262.606C128.848 266.842 125.414 270.276 121.178 270.276L90.5015 270.276C86.2657 270.276 82.832 266.842 82.832 262.606Z" stroke="#000000" stroke-linecap="butt" stroke-linejoin="round" fill-rule="evenodd"/><path d="M99.5869 254.188 104.712 240.828 106.618 240.828 112.087 254.188 110.071 254.188 108.524 250.141 102.931 250.141 101.462 254.188 99.5869 254.188ZM103.446 248.703 107.977 248.703 106.571 245C106.155 243.875 105.842 242.953 105.634 242.235 105.457 243.089 105.217 243.938 104.915 244.781L103.446 248.703Z" fill="#000000"/><path d="M82.832 417.32 82.832 417.32C82.832 413.085 86.2657 409.651 90.5015 409.651L121.178 409.651 121.178 409.651C123.212 409.651 125.163 410.459 126.601 411.897 128.04 413.336 128.848 415.286 128.848 417.32L128.848 447.997C128.848 452.233 125.414 455.667 121.178 455.667L90.5015 455.667C86.2657 455.667 82.832 452.233 82.832 447.997Z" fill="#CFE2F3" fill-rule="evenodd"/><path d="M82.832 417.32 82.832 417.32C82.832 413.085 86.2657 409.651 90.5015 409.651L121.178 409.651 121.178 409.651C123.212 409.651 125.163 410.459 126.601 411.897 128.04 413.336 128.848 415.286 128.848 417.32L128.848 447.997C128.848 452.233 125.414 455.667 121.178 455.667L90.5015 455.667C86.2657 455.667 82.832 452.233 82.832 447.997Z" stroke="#000000" stroke-linecap="butt" stroke-linejoin="round" fill-rule="evenodd"/><path d="M101.673 439.579 101.673 426.219 110.689 426.219 110.689 427.798 103.439 427.798 103.439 431.938 109.704 431.938 109.704 433.516 103.439 433.516 103.439 439.579 101.673 439.579Z" fill="#000000"/><path d="M275.024 231.929 275.024 231.929C275.024 227.694 278.457 224.26 282.693 224.26L313.37 224.26 313.37 224.26C315.404 224.26 317.355 225.068 318.793 226.506 320.231 227.944 321.039 229.895 321.039 231.929L321.039 262.606C321.039 266.842 317.606 270.276 313.37 270.276L282.693 270.276C278.457 270.276 275.024 266.842 275.024 262.606Z" fill="#CFE2F3" fill-rule="evenodd"/><path d="M275.024 231.929 275.024 231.929C275.024 227.694 278.457 224.26 282.693 224.26L313.37 224.26 313.37 224.26C315.404 224.26 317.355 225.068 318.793 226.506 320.231 227.944 321.039 229.895 321.039 231.929L321.039 262.606C321.039 266.842 317.606 270.276 313.37 270.276L282.693 270.276C278.457 270.276 275.024 266.842 275.024 262.606Z" stroke="#000000" stroke-linecap="butt" stroke-linejoin="round" fill-rule="evenodd"/><path d="M293.169 254.188 293.169 240.828 298.185 240.828C299.206 240.828 300.023 240.964 300.638 241.235 301.252 241.505 301.732 241.922 302.075 242.485 302.43 243.047 302.607 243.636 302.607 244.25 302.607 244.823 302.45 245.365 302.138 245.875 301.836 246.375 301.372 246.776 300.747 247.078 301.549 247.318 302.169 247.724 302.607 248.297 303.044 248.87 303.263 249.542 303.263 250.313 303.263 250.938 303.127 251.521 302.857 252.063 302.596 252.594 302.268 253.005 301.872 253.297 301.487 253.589 301.002 253.813 300.419 253.969 299.836 254.115 299.117 254.188 298.263 254.188L293.169 254.188ZM294.95 246.438 297.825 246.438C298.617 246.438 299.18 246.391 299.513 246.297 299.961 246.162 300.299 245.938 300.528 245.625 300.758 245.313 300.872 244.922 300.872 244.453 300.872 244.016 300.763 243.63 300.544 243.297 300.336 242.953 300.034 242.719 299.638 242.594 299.242 242.469 298.565 242.406 297.607 242.406L294.95 242.406 294.95 246.438ZM294.95 252.61 298.263 252.61C298.836 252.61 299.237 252.589 299.466 252.547 299.872 252.474 300.211 252.354 300.482 252.188 300.763 252.011 300.992 251.761 301.169 251.438 301.346 251.115 301.435 250.74 301.435 250.313 301.435 249.813 301.305 249.38 301.044 249.016 300.794 248.651 300.44 248.396 299.982 248.25 299.534 248.094 298.883 248.016 298.028 248.016L294.95 248.016 294.95 252.61Z" fill="#000000"/><path d="M275.024 417.32 275.024 417.32C275.024 413.085 278.457 409.651 282.693 409.651L313.37 409.651 313.37 409.651C315.404 409.651 317.355 410.459 318.793 411.897 320.231 413.336 321.039 415.286 321.039 417.32L321.039 447.997C321.039 452.233 317.606 455.667 313.37 455.667L282.693 455.667C278.457 455.667 275.024 452.233 275.024 447.997Z" fill="#CFE2F3" fill-rule="evenodd"/><path d="M275.024 417.32 275.024 417.32C275.024 413.085 278.457 409.651 282.693 409.651L313.37 409.651 313.37 409.651C315.404 409.651 317.355 410.459 318.793 411.897 320.231 413.336 321.039 415.286 321.039 417.32L321.039 447.997C321.039 452.233 317.606 455.667 313.37 455.667L282.693 455.667C278.457 455.667 275.024 452.233 275.024 447.997Z" stroke="#000000" stroke-linecap="butt" stroke-linejoin="round" fill-rule="evenodd"/><path d="M292.733 439.579 292.733 426.219 297.342 426.219C298.373 426.219 299.165 426.287 299.717 426.423 300.477 426.589 301.128 426.907 301.67 427.376 302.378 427.969 302.904 428.73 303.248 429.657 303.602 430.584 303.779 431.641 303.779 432.829 303.779 433.839 303.66 434.74 303.42 435.532 303.18 436.313 302.873 436.959 302.498 437.469 302.134 437.98 301.733 438.386 301.295 438.688 300.858 438.98 300.326 439.204 299.701 439.36 299.076 439.506 298.363 439.579 297.561 439.579L292.733 439.579ZM294.498 438.001 297.358 438.001C298.233 438.001 298.92 437.923 299.42 437.766 299.92 437.6 300.321 437.365 300.623 437.063 301.04 436.647 301.363 436.084 301.592 435.376 301.831 434.667 301.951 433.808 301.951 432.798 301.951 431.402 301.722 430.329 301.264 429.579 300.805 428.829 300.248 428.329 299.592 428.079 299.123 427.891 298.363 427.798 297.311 427.798L294.498 427.798 294.498 438.001Z" fill="#000000"/><path d="M467.215 417.32 467.215 417.32C467.215 413.085 470.649 409.651 474.885 409.651L505.562 409.651 505.562 409.651C507.596 409.651 509.546 410.459 510.985 411.897 512.423 413.336 513.231 415.286 513.231 417.32L513.231 447.997C513.231 452.233 509.797 455.667 505.562 455.667L474.885 455.667C470.649 455.667 467.215 452.233 467.215 447.997Z" fill="#CFE2F3" fill-rule="evenodd"/><path d="M467.215 417.32 467.215 417.32C467.215 413.085 470.649 409.651 474.885 409.651L505.562 409.651 505.562 409.651C507.596 409.651 509.546 410.459 510.985 411.897 512.423 413.336 513.231 415.286 513.231 417.32L513.231 447.997C513.231 452.233 509.797 455.667 505.562 455.667L474.885 455.667C470.649 455.667 467.215 452.233 467.215 447.997Z" stroke="#000000" stroke-linecap="butt" stroke-linejoin="round" fill-rule="evenodd"/><path d="M485.47 439.579 485.47 426.219 495.126 426.219 495.126 427.798 487.251 427.798 487.251 431.891 494.626 431.891 494.626 433.454 487.251 433.454 487.251 438.001 495.439 438.001 495.439 439.579 485.47 439.579Z" fill="#000000"/><path d="M275.024 46.5382 275.024 46.5382C275.024 42.3025 278.457 38.8688 282.693 38.8688L313.37 38.8688 313.37 38.8688C315.404 38.8688 317.355 39.6768 318.793 41.1151 320.231 42.5534 321.039 44.5041 321.039 46.5382L321.039 77.2151C321.039 81.4508 317.606 84.8845 313.37 84.8845L282.693 84.8845C278.457 84.8845 275.024 81.4508 275.024 77.2151Z" fill="#CFE2F3" fill-rule="evenodd"/><path d="M275.024 46.5382 275.024 46.5382C275.024 42.3025 278.457 38.8688 282.693 38.8688L313.37 38.8688 313.37 38.8688C315.404 38.8688 317.355 39.6768 318.793 41.1151 320.231 42.5534 321.039 44.5041 321.039 46.5382L321.039 77.2151C321.039 81.4508 317.606 84.8845 313.37 84.8845L282.693 84.8845C278.457 84.8845 275.024 81.4508 275.024 77.2151Z" stroke="#000000" stroke-linecap="butt" stroke-linejoin="round" fill-rule="evenodd"/><path d="M302.264 64.1091 304.029 64.5623C303.654 66.0102 302.988 67.1196 302.029 67.8904 301.071 68.6508 299.894 69.031 298.498 69.031 297.061 69.031 295.889 68.7393 294.983 68.156 294.087 67.5623 293.399 66.7133 292.92 65.6091 292.451 64.4946 292.217 63.2966 292.217 62.0154 292.217 60.63 292.483 59.4216 293.014 58.3904 293.545 57.3487 294.3 56.5623 295.279 56.031 296.269 55.4893 297.352 55.2185 298.529 55.2185 299.863 55.2185 300.983 55.5571 301.889 56.2341 302.805 56.9112 303.441 57.8696 303.795 59.1091L302.061 59.5154C301.748 58.5466 301.295 57.8435 300.701 57.406 300.118 56.9581 299.384 56.7341 298.498 56.7341 297.467 56.7341 296.608 56.9789 295.92 57.4685 295.233 57.9581 294.748 58.6196 294.467 59.4529 294.186 60.2758 294.045 61.13 294.045 62.0154 294.045 63.1508 294.212 64.1404 294.545 64.9841 294.878 65.8279 295.394 66.4633 296.092 66.8904 296.79 67.3071 297.545 67.5154 298.358 67.5154 299.347 67.5154 300.186 67.2289 300.873 66.656 301.561 66.0831 302.024 65.2341 302.264 64.1091Z" fill="#000000"/><path d="M139.916 239.268 266.719 239.268" fill="#000000" fill-rule="evenodd" fill-opacity="0"/><path d="M139.916 239.268 248.719 239.268" stroke="#0000FF" stroke-width="3" stroke-linecap="butt" stroke-linejoin="round" fill-rule="evenodd"/><path d="M248.719 244.223 262.333 239.268 248.719 234.313Z" stroke="#0000FF" stroke-width="3" stroke-linecap="butt" fill="#0000FF" fill-rule="evenodd"/><path d="M264.674 257.588 139.068 257.588" fill="#000000" fill-rule="evenodd" fill-opacity="0"/><path d="M264.674 257.588 157.068 257.588" stroke="#00FF00" stroke-width="3" stroke-linecap="butt" stroke-linejoin="round" fill-rule="evenodd"/><path d="M157.068 252.633 143.453 257.588 157.068 262.543Z" stroke="#00FF00" stroke-width="3" stroke-linecap="butt" fill="#00FF00" fill-rule="evenodd"/><path d="M290.051 213.222 290.051 98.1673" fill="#000000" fill-rule="evenodd" fill-opacity="0"/><path d="M290.051 213.222 290.051 116.167" stroke="#0000FF" stroke-width="3" stroke-linecap="butt" stroke-linejoin="round" fill-rule="evenodd"/><path d="M295.007 116.167 290.051 102.553 285.096 116.167Z" stroke="#0000FF" stroke-width="3" stroke-linecap="butt" fill="#0000FF" fill-rule="evenodd"/><path d="M306.194 99.0157 306.194 217.63" fill="#000000" fill-rule="evenodd" fill-opacity="0"/><path d="M306.194 99.0157 306.194 199.63" stroke="#FF0000" stroke-width="3" stroke-linecap="butt" stroke-linejoin="round" fill-rule="evenodd"/><path d="M301.239 199.63 306.194 213.244 311.149 199.63Z" stroke="#FF0000" stroke-width="3" stroke-linecap="butt" fill="#FF0000" fill-rule="evenodd"/><path d="M290.052 280.656 290.052 399.27" fill="#000000" fill-rule="evenodd" fill-opacity="0"/><path d="M290.052 280.656 290.052 381.27" stroke="#0000FF" stroke-width="3" stroke-linecap="butt" stroke-linejoin="round" fill-rule="evenodd"/><path d="M285.097 381.27 290.052 394.885 295.007 381.27Z" stroke="#0000FF" stroke-width="3" stroke-linecap="butt" fill="#0000FF" fill-rule="evenodd"/><path d="M264.738 422.892 139.132 422.892" fill="#000000" fill-rule="evenodd" fill-opacity="0"/><path d="M264.738 422.892 157.132 422.892" stroke="#0000FF" stroke-width="3" stroke-linecap="butt" stroke-linejoin="round" fill-rule="evenodd"/><path d="M157.132 417.937 143.518 422.892 157.132 427.848Z" stroke="#0000FF" stroke-width="3" stroke-linecap="butt" fill="#0000FF" fill-rule="evenodd"/><path d="M169.509 237.787 169.509 237.787C169.509 231.577 174.543 226.543 180.753 226.543L180.753 226.543C183.735 226.543 186.595 227.728 188.704 229.837 190.813 231.945 191.997 234.805 191.997 237.787L191.997 237.787C191.997 243.997 186.963 249.031 180.753 249.031L180.753 249.031C174.543 249.031 169.509 243.997 169.509 237.787Z" fill="#FFFF00" fill-rule="evenodd"/><path d="M166.942 221.63 194.564 221.63 194.564 253.945 166.942 253.945Z" fill="#000000" fill-rule="evenodd" fill-opacity="0"/><path d="M181.759 240.87 180.821 240.87 180.821 234.901C180.592 235.12 180.295 235.339 179.931 235.557 179.566 235.766 179.238 235.922 178.946 236.026L178.946 235.12C179.478 234.88 179.936 234.583 180.321 234.229 180.717 233.875 180.993 233.537 181.149 233.214L181.759 233.214 181.759 240.87Z" fill="#000000"/><path d="M277.509 182.287 277.509 182.287C277.509 176.077 282.543 171.043 288.753 171.043L288.753 171.043C291.735 171.043 294.595 172.228 296.704 174.337 298.813 176.445 299.997 179.305 299.997 182.287L299.997 182.287C299.997 188.497 294.963 193.531 288.753 193.531L288.753 193.531C282.543 193.531 277.509 188.497 277.509 182.287Z" fill="#FFFF00" fill-rule="evenodd"/><path d="M274.942 166.13 302.564 166.13 302.564 198.445 274.942 198.445Z" fill="#000000" fill-rule="evenodd" fill-opacity="0"/><path d="M291.149 184.464 291.149 185.37 286.118 185.37C286.108 185.141 286.144 184.922 286.228 184.714 286.353 184.37 286.556 184.031 286.837 183.698 287.118 183.365 287.53 182.984 288.071 182.557 288.894 181.87 289.451 181.328 289.743 180.932 290.035 180.537 290.181 180.162 290.181 179.807 290.181 179.432 290.045 179.12 289.774 178.87 289.514 178.609 289.17 178.479 288.743 178.479 288.295 178.479 287.936 178.615 287.665 178.886 287.394 179.156 287.259 179.531 287.259 180.011L286.29 179.917C286.353 179.198 286.597 178.651 287.024 178.276 287.462 177.901 288.04 177.714 288.759 177.714 289.498 177.714 290.082 177.917 290.509 178.323 290.936 178.729 291.149 179.229 291.149 179.823 291.149 180.136 291.087 180.438 290.962 180.729 290.837 181.021 290.629 181.333 290.337 181.667 290.045 181.99 289.561 182.432 288.884 182.995 288.332 183.474 287.972 183.797 287.806 183.964 287.649 184.13 287.519 184.297 287.415 184.464L291.149 184.464Z" fill="#000000"/><path d="M295.509 133.287 295.509 133.287C295.509 127.077 300.543 122.043 306.753 122.043L306.753 122.043C309.735 122.043 312.595 123.228 314.704 125.337 316.813 127.445 317.997 130.305 317.997 133.287L317.997 133.287C317.997 139.497 312.963 144.531 306.753 144.531L306.753 144.531C300.543 144.531 295.509 139.497 295.509 133.287Z" fill="#FFFF00" fill-rule="evenodd"/><path d="M292.942 117.13 320.564 117.13 320.564 149.445 292.942 149.445Z" fill="#000000" fill-rule="evenodd" fill-opacity="0"/><path d="M304.243 134.354 305.181 134.229C305.285 134.761 305.467 135.146 305.728 135.386 305.988 135.615 306.3 135.729 306.665 135.729 307.103 135.729 307.472 135.578 307.774 135.276 308.087 134.964 308.243 134.583 308.243 134.136 308.243 133.708 308.103 133.354 307.821 133.073 307.54 132.792 307.181 132.651 306.743 132.651 306.566 132.651 306.347 132.688 306.087 132.761L306.196 131.932C306.259 131.943 306.306 131.948 306.337 131.948 306.733 131.948 307.092 131.844 307.415 131.636 307.738 131.427 307.899 131.104 307.899 130.667 307.899 130.323 307.78 130.042 307.54 129.823 307.311 129.594 307.014 129.479 306.649 129.479 306.285 129.479 305.978 129.594 305.728 129.823 305.488 130.052 305.337 130.396 305.274 130.854L304.337 130.682C304.452 130.057 304.712 129.573 305.118 129.229 305.524 128.886 306.024 128.714 306.618 128.714 307.035 128.714 307.42 128.802 307.774 128.979 308.129 129.156 308.394 129.401 308.571 129.714 308.759 130.016 308.853 130.344 308.853 130.698 308.853 131.021 308.764 131.318 308.587 131.589 308.41 131.86 308.149 132.078 307.806 132.245 308.254 132.349 308.603 132.568 308.853 132.901 309.103 133.224 309.228 133.63 309.228 134.12 309.228 134.787 308.983 135.354 308.493 135.823 308.014 136.281 307.405 136.511 306.665 136.511 305.998 136.511 305.441 136.313 304.993 135.917 304.556 135.511 304.306 134.99 304.243 134.354Z" fill="#000000"/><path d="M279.009 312.287 279.009 312.287C279.009 306.077 284.043 301.043 290.253 301.043L290.253 301.043C293.235 301.043 296.095 302.228 298.204 304.337 300.313 306.445 301.497 309.305 301.497 312.287L301.497 312.287C301.497 318.497 296.463 323.531 290.253 323.531L290.253 323.531C284.043 323.531 279.009 318.497 279.009 312.287Z" fill="#FFFF00" fill-rule="evenodd"/><path d="M276.442 296.13 304.064 296.13 304.064 328.445 276.442 328.445Z" fill="#000000" fill-rule="evenodd" fill-opacity="0"/><path d="M290.728 315.37 290.728 313.542 287.431 313.542 287.431 312.682 290.899 307.745 291.665 307.745 291.665 312.682 292.696 312.682 292.696 313.542 291.665 313.542 291.665 315.37 290.728 315.37ZM290.728 312.682 290.728 309.245 288.353 312.682 290.728 312.682Z" fill="#000000"/><path d="M225.509 421.787 225.509 421.787C225.509 415.577 230.543 410.543 236.753 410.543L236.753 410.543C239.735 410.543 242.595 411.728 244.704 413.837 246.813 415.945 247.997 418.805 247.997 421.787L247.997 421.787C247.997 427.997 242.963 433.031 236.753 433.031L236.753 433.031C230.543 433.031 225.509 427.997 225.509 421.787Z" fill="#FFFF00" fill-rule="evenodd"/><path d="M222.942 405.63 250.564 405.63 250.564 437.945 222.942 437.945Z" fill="#000000" fill-rule="evenodd" fill-opacity="0"/><path d="M234.228 422.87 235.212 422.792C235.285 423.271 235.451 423.63 235.712 423.87 235.983 424.11 236.306 424.229 236.681 424.229 237.129 424.229 237.509 424.063 237.821 423.729 238.134 423.386 238.29 422.932 238.29 422.37 238.29 421.839 238.139 421.417 237.837 421.104 237.545 420.792 237.155 420.636 236.665 420.636 236.363 420.636 236.092 420.708 235.853 420.854 235.613 420.99 235.42 421.167 235.274 421.386L234.399 421.261 235.134 417.339 238.931 417.339 238.931 418.245 235.884 418.245 235.478 420.292C235.936 419.969 236.415 419.807 236.915 419.807 237.582 419.807 238.144 420.042 238.603 420.511 239.061 420.969 239.29 421.557 239.29 422.276 239.29 422.974 239.087 423.573 238.681 424.073 238.191 424.688 237.524 424.995 236.681 424.995 235.993 424.995 235.425 424.802 234.978 424.417 234.54 424.031 234.29 423.516 234.228 422.87Z" fill="#000000"/><path d="M212.415 257.588 212.415 257.588C212.415 251.378 217.449 246.344 223.659 246.344L223.659 246.344C226.641 246.344 229.501 247.528 231.61 249.637 233.718 251.746 234.903 254.606 234.903 257.588L234.903 257.588C234.903 263.798 229.869 268.832 223.659 268.832L223.659 268.832C217.449 268.832 212.415 263.798 212.415 257.588Z" fill="#FFFF00" fill-rule="evenodd"/><path d="M207.848 241.43 239.029 241.43 239.029 273.745 207.848 273.745Z" fill="#000000" fill-rule="evenodd" fill-opacity="0"/><path d="M221.481 260.67 220.543 260.67 220.543 254.702C220.314 254.92 220.017 255.139 219.652 255.358 219.288 255.566 218.96 255.723 218.668 255.827L218.668 254.92C219.199 254.681 219.658 254.384 220.043 254.03 220.439 253.676 220.715 253.337 220.871 253.014L221.481 253.014 221.481 260.67ZM228.798 259.764 228.798 260.67 223.766 260.67C223.756 260.441 223.792 260.223 223.876 260.014 224.001 259.67 224.204 259.332 224.485 258.999 224.766 258.665 225.178 258.285 225.72 257.858 226.542 257.17 227.1 256.629 227.391 256.233 227.683 255.837 227.829 255.462 227.829 255.108 227.829 254.733 227.694 254.42 227.423 254.17 227.162 253.91 226.819 253.78 226.391 253.78 225.944 253.78 225.584 253.915 225.313 254.186 225.042 254.457 224.907 254.832 224.907 255.311L223.938 255.217C224.001 254.499 224.246 253.952 224.673 253.577 225.11 253.202 225.688 253.014 226.407 253.014 227.147 253.014 227.73 253.217 228.157 253.624 228.584 254.03 228.798 254.53 228.798 255.124 228.798 255.436 228.735 255.738 228.61 256.03 228.485 256.321 228.277 256.634 227.985 256.967 227.694 257.29 227.209 257.733 226.532 258.295 225.98 258.775 225.621 259.098 225.454 259.264 225.298 259.431 225.167 259.598 225.063 259.764L228.798 259.764Z" fill="#000000"/><path d="M113.512 392.693 254.614 274.047" fill="#000000" fill-rule="evenodd" fill-opacity="0"/><path d="M113.512 392.693 240.837 285.632" stroke="#0000FF" stroke-width="3" stroke-linecap="butt" stroke-linejoin="round" fill-rule="evenodd"/><path d="M244.026 289.424 251.257 276.87 237.648 281.839Z" stroke="#0000FF" stroke-width="3" stroke-linecap="butt" fill="#0000FF" fill-rule="evenodd"/><path d="M129.91 367.843 129.91 367.843C129.91 361.633 134.944 356.598 141.154 356.598L141.154 356.598C144.136 356.598 146.996 357.783 149.105 359.892 151.213 362 152.398 364.86 152.398 367.843L152.398 367.843C152.398 374.052 147.364 379.087 141.154 379.087L141.154 379.087C134.944 379.087 129.91 374.052 129.91 367.843Z" fill="#FFFF00" fill-rule="evenodd"/><path d="M127.343 351.685 154.965 351.685 154.965 384 127.343 384Z" fill="#000000" fill-rule="evenodd" fill-opacity="0"/><path d="M143.487 365.159 142.566 365.238C142.482 364.873 142.362 364.607 142.206 364.441 141.956 364.17 141.644 364.034 141.269 364.034 140.977 364.034 140.717 364.118 140.487 364.284 140.196 364.503 139.961 364.821 139.784 365.238 139.618 365.644 139.529 366.227 139.519 366.988 139.748 366.644 140.024 366.389 140.347 366.222 140.68 366.055 141.024 365.972 141.378 365.972 142.003 365.972 142.534 366.206 142.972 366.675 143.409 367.133 143.628 367.722 143.628 368.441 143.628 368.92 143.524 369.368 143.316 369.784 143.107 370.191 142.821 370.503 142.456 370.722 142.102 370.941 141.696 371.05 141.237 371.05 140.456 371.05 139.821 370.764 139.331 370.191 138.842 369.618 138.597 368.675 138.597 367.363 138.597 365.883 138.868 364.81 139.409 364.144 139.889 363.56 140.529 363.269 141.331 363.269 141.925 363.269 142.415 363.435 142.8 363.769 143.185 364.102 143.415 364.566 143.487 365.159ZM139.675 368.456C139.675 368.779 139.743 369.087 139.878 369.378 140.014 369.67 140.201 369.894 140.441 370.05 140.691 370.206 140.951 370.284 141.222 370.284 141.618 370.284 141.956 370.128 142.237 369.816 142.529 369.493 142.675 369.055 142.675 368.503 142.675 367.982 142.534 367.571 142.253 367.269 141.972 366.956 141.618 366.8 141.191 366.8 140.764 366.8 140.404 366.956 140.112 367.269 139.821 367.571 139.675 367.967 139.675 368.456Z" fill="#000000"/><path d="M272 286 133.512 406.504" fill="#000000" fill-rule="evenodd" fill-opacity="0"/><path d="M272 286 147.091 394.688" stroke="#FF0000" stroke-width="3" stroke-linecap="butt" stroke-linejoin="round" fill-rule="evenodd"/><path d="M143.838 390.95 136.82 403.625 150.344 398.426Z" stroke="#FF0000" stroke-width="3" stroke-linecap="butt" fill="#FF0000" fill-rule="evenodd"/><path d="M140.416 445.768 267.219 445.768" fill="#000000" fill-rule="evenodd" fill-opacity="0"/><path d="M140.416 445.768 249.219 445.768" stroke="#FF0000" stroke-width="3" stroke-linecap="butt" stroke-linejoin="round" fill-rule="evenodd"/><path d="M249.219 450.723 262.833 445.768 249.219 440.813Z" stroke="#FF0000" stroke-width="3" stroke-linecap="butt" fill="#FF0000" fill-rule="evenodd"/><path d="M233.777 314.787 233.777 314.787C233.777 308.577 238.811 303.543 245.021 303.543L245.021 303.543C248.003 303.543 250.863 304.728 252.972 306.837 255.08 308.945 256.265 311.805 256.265 314.787L256.265 314.787C256.265 320.997 251.231 326.031 245.021 326.031L245.021 326.031C238.811 326.031 233.777 320.997 233.777 314.787Z" fill="#FFFF00" fill-rule="evenodd"/><path d="M231.21 298.63 258.832 298.63 258.832 330.945 231.21 330.945Z" fill="#000000" fill-rule="evenodd" fill-opacity="0"/><path d="M242.558 311.245 242.558 310.339 247.495 310.339 247.495 311.073C247.016 311.583 246.537 312.271 246.058 313.136 245.579 313.99 245.209 314.87 244.948 315.776 244.761 316.412 244.641 317.11 244.589 317.87L243.636 317.87C243.646 317.266 243.761 316.542 243.98 315.698 244.209 314.844 244.532 314.026 244.948 313.245 245.375 312.453 245.823 311.787 246.292 311.245L242.558 311.245Z" fill="#000000"/><path d="M165.509 445.63 165.509 445.63C165.509 439.42 170.543 434.386 176.753 434.386L176.753 434.386C179.735 434.386 182.595 435.57 184.704 437.679 186.813 439.788 187.997 442.648 187.997 445.63L187.997 445.63C187.997 451.84 182.963 456.874 176.753 456.874L176.753 456.874C170.543 456.874 165.509 451.84 165.509 445.63Z" fill="#FFFF00" fill-rule="evenodd"/><path d="M162.942 429.472 190.564 429.472 190.564 461.787 162.942 461.787Z" fill="#000000" fill-rule="evenodd" fill-opacity="0"/><path d="M175.681 444.572C175.285 444.436 174.993 444.238 174.806 443.978 174.618 443.707 174.524 443.389 174.524 443.025 174.524 442.462 174.722 441.994 175.118 441.619 175.524 441.244 176.056 441.056 176.712 441.056 177.379 441.056 177.915 441.249 178.321 441.634 178.728 442.02 178.931 442.488 178.931 443.041 178.931 443.395 178.837 443.707 178.649 443.978 178.472 444.238 178.191 444.436 177.806 444.572 178.274 444.728 178.629 444.978 178.868 445.322 179.118 445.655 179.243 446.056 179.243 446.525 179.243 447.181 179.014 447.733 178.556 448.181 178.097 448.619 177.488 448.837 176.728 448.837 175.978 448.837 175.373 448.619 174.915 448.181 174.457 447.733 174.228 447.176 174.228 446.509 174.228 446.009 174.353 445.593 174.603 445.259 174.853 444.926 175.212 444.697 175.681 444.572ZM175.493 442.994C175.493 443.348 175.608 443.639 175.837 443.869 176.066 444.098 176.368 444.212 176.743 444.212 177.097 444.212 177.389 444.103 177.618 443.884 177.858 443.655 177.978 443.374 177.978 443.041 177.978 442.697 177.858 442.41 177.618 442.181 177.379 441.942 177.082 441.822 176.728 441.822 176.373 441.822 176.076 441.936 175.837 442.166 175.608 442.395 175.493 442.671 175.493 442.994ZM175.181 446.509C175.181 446.78 175.243 447.041 175.368 447.291 175.504 447.541 175.696 447.733 175.946 447.869 176.196 448.004 176.462 448.072 176.743 448.072 177.191 448.072 177.561 447.931 177.853 447.65 178.144 447.358 178.29 446.988 178.29 446.541 178.29 446.093 178.139 445.723 177.837 445.431 177.535 445.129 177.16 444.978 176.712 444.978 176.274 444.978 175.91 445.124 175.618 445.416 175.326 445.707 175.181 446.072 175.181 446.509Z" fill="#000000"/><path d="M331.149 425.449 457.952 425.449" fill="#000000" fill-rule="evenodd" fill-opacity="0"/><path d="M331.149 425.449 439.952 425.449" stroke="#0000FF" stroke-width="3" stroke-linecap="butt" stroke-linejoin="round" fill-rule="evenodd"/><path d="M439.952 430.404 453.567 425.449 439.952 420.494Z" stroke="#0000FF" stroke-width="3" stroke-linecap="butt" fill="#0000FF" fill-rule="evenodd"/><path d="M455.907 443.769 330.301 443.769" fill="#000000" fill-rule="evenodd" fill-opacity="0"/><path d="M455.907 443.769 348.301 443.769" stroke="#00FF00" stroke-width="3" stroke-linecap="butt" stroke-linejoin="round" fill-rule="evenodd"/><path d="M348.301 438.814 334.687 443.769 348.301 448.724Z" stroke="#00FF00" stroke-width="3" stroke-linecap="butt" fill="#00FF00" fill-rule="evenodd"/><path d="M354.732 422.892 354.732 422.892C354.732 416.682 359.766 411.648 365.976 411.648L365.976 411.648C368.958 411.648 371.818 412.833 373.927 414.942 376.036 417.05 377.22 419.91 377.22 422.892L377.22 422.892C377.22 429.102 372.186 434.136 365.976 434.136L365.976 434.136C359.766 434.136 354.732 429.102 354.732 422.892Z" fill="#FFFF00" fill-rule="evenodd"/><path d="M352.165 406.735 379.787 406.735 379.787 439.05 352.165 439.05Z" fill="#000000" fill-rule="evenodd" fill-opacity="0"/><path d="M363.591 424.209 364.497 424.131C364.57 424.548 364.716 424.855 364.935 425.053 365.154 425.241 365.43 425.334 365.763 425.334 366.044 425.334 366.294 425.272 366.513 425.147 366.732 425.011 366.909 424.834 367.044 424.616 367.19 424.386 367.31 424.09 367.404 423.725 367.497 423.35 367.544 422.965 367.544 422.569 367.544 422.527 367.539 422.465 367.529 422.381 367.341 422.683 367.086 422.928 366.763 423.116 366.44 423.293 366.091 423.381 365.716 423.381 365.081 423.381 364.544 423.157 364.107 422.709 363.669 422.251 363.451 421.647 363.451 420.897 363.451 420.116 363.68 419.491 364.138 419.022 364.596 418.553 365.169 418.319 365.857 418.319 366.346 418.319 366.794 418.454 367.201 418.725 367.617 418.985 367.93 419.366 368.138 419.866 368.357 420.355 368.466 421.069 368.466 422.006 368.466 422.975 368.362 423.751 368.154 424.334 367.945 424.907 367.628 425.345 367.201 425.647 366.784 425.949 366.294 426.1 365.732 426.1 365.138 426.1 364.654 425.938 364.279 425.616 363.904 425.282 363.675 424.813 363.591 424.209ZM367.435 420.85C367.435 420.308 367.289 419.881 366.997 419.569 366.716 419.246 366.372 419.084 365.966 419.084 365.55 419.084 365.185 419.256 364.872 419.6 364.57 419.944 364.419 420.386 364.419 420.928 364.419 421.407 364.565 421.803 364.857 422.116 365.149 422.418 365.508 422.569 365.935 422.569 366.372 422.569 366.732 422.418 367.013 422.116 367.294 421.803 367.435 421.381 367.435 420.85Z" fill="#000000"/><path d="M409.564 445.63 409.564 445.63C409.564 439.42 414.598 434.386 420.808 434.386L420.808 434.386C423.791 434.386 426.651 435.57 428.759 437.679 430.868 439.788 432.052 442.648 432.052 445.63L432.052 445.63C432.052 451.84 427.018 456.874 420.808 456.874L420.808 456.874C414.598 456.874 409.564 451.84 409.564 445.63Z" fill="#FFFF00" fill-rule="evenodd"/><path d="M405.497 429.472 436.678 429.472 436.678 461.787 405.497 461.787Z" fill="#000000" fill-rule="evenodd" fill-opacity="0"/><path d="M419.13 448.712 418.193 448.712 418.193 442.744C417.964 442.962 417.667 443.181 417.302 443.4 416.938 443.608 416.609 443.765 416.318 443.869L416.318 442.962C416.849 442.723 417.307 442.426 417.693 442.072 418.089 441.718 418.365 441.379 418.521 441.056L419.13 441.056 419.13 448.712ZM421.525 444.947C421.525 444.051 421.619 443.327 421.807 442.775 421.994 442.223 422.27 441.801 422.635 441.509 422.999 441.207 423.458 441.056 424.01 441.056 424.426 441.056 424.786 441.14 425.088 441.306 425.4 441.462 425.656 441.697 425.854 442.009 426.062 442.322 426.223 442.702 426.338 443.15 426.453 443.598 426.51 444.197 426.51 444.947 426.51 445.843 426.416 446.567 426.229 447.119 426.041 447.671 425.765 448.098 425.4 448.4 425.036 448.692 424.572 448.837 424.01 448.837 423.281 448.837 422.708 448.577 422.291 448.056 421.781 447.421 421.525 446.384 421.525 444.947ZM422.494 444.947C422.494 446.197 422.64 447.03 422.932 447.447 423.223 447.863 423.583 448.072 424.01 448.072 424.447 448.072 424.812 447.863 425.104 447.447 425.395 447.03 425.541 446.197 425.541 444.947 425.541 443.697 425.395 442.863 425.104 442.447 424.812 442.03 424.447 441.822 424.01 441.822 423.583 441.822 423.239 442.004 422.979 442.369 422.656 442.837 422.494 443.697 422.494 444.947Z" fill="#000000"/><path d="M306.051 396.222 306.051 281.167" fill="#000000" fill-rule="evenodd" fill-opacity="0"/><path d="M306.051 396.222 306.051 299.167" stroke="#00FF00" stroke-width="3" stroke-linecap="butt" stroke-linejoin="round" fill-rule="evenodd"/><path d="M311.007 299.167 306.051 285.553 301.096 299.167Z" stroke="#00FF00" stroke-width="3" stroke-linecap="butt" fill="#00FF00" fill-rule="evenodd"/><path d="M297.008 366.549 297.008 366.549C297.008 360.339 302.042 355.304 308.252 355.304L308.252 355.304C311.234 355.304 314.094 356.489 316.203 358.598 318.311 360.706 319.496 363.566 319.496 366.549L319.496 366.549C319.496 372.758 314.462 377.793 308.252 377.793L308.252 377.793C302.042 377.793 297.008 372.758 297.008 366.549Z" fill="#FFFF00" fill-rule="evenodd"/><path d="M292.941 350.391 324.122 350.391 324.122 382.706 292.941 382.706Z" fill="#000000" fill-rule="evenodd" fill-opacity="0"/><path d="M306.97 369.631 306.032 369.631 306.032 363.662C305.803 363.881 305.506 364.1 305.141 364.319 304.777 364.527 304.449 364.683 304.157 364.787L304.157 363.881C304.688 363.641 305.147 363.345 305.532 362.99 305.928 362.636 306.204 362.298 306.36 361.975L306.97 361.975 306.97 369.631ZM312.104 369.631 311.167 369.631 311.167 363.662C310.938 363.881 310.641 364.1 310.276 364.319 309.912 364.527 309.584 364.683 309.292 364.787L309.292 363.881C309.823 363.641 310.281 363.345 310.667 362.99 311.063 362.636 311.339 362.298 311.495 361.975L312.104 361.975 312.104 369.631Z" fill="#000000"/><path d="M395.916 119.268 435.002 119.488" fill="#000000" fill-rule="evenodd" fill-opacity="0"/><path d="M395.916 119.268 417.003 119.387" stroke="#0000FF" stroke-width="3" stroke-linecap="butt" stroke-linejoin="round" fill-rule="evenodd"/><path d="M416.975 124.342 430.617 119.463 417.031 114.432Z" stroke="#0000FF" stroke-width="3" stroke-linecap="butt" fill="#0000FF" fill-rule="evenodd"/><path d="M395.916 143.268 435.002 143.488" fill="#000000" fill-rule="evenodd" fill-opacity="0"/><path d="M395.916 143.268 417.003 143.387" stroke="#00FF00" stroke-width="3" stroke-linecap="butt" stroke-linejoin="round" fill-rule="evenodd"/><path d="M416.975 148.342 430.617 143.463 417.031 138.432Z" stroke="#00FF00" stroke-width="3" stroke-linecap="butt" fill="#00FF00" fill-rule="evenodd"/><path d="M395.916 167.268 435.002 167.488" fill="#000000" fill-rule="evenodd" fill-opacity="0"/><path d="M395.916 167.268 417.003 167.387" stroke="#FF0000" stroke-width="3" stroke-linecap="butt" stroke-linejoin="round" fill-rule="evenodd"/><path d="M416.975 172.342 430.617 167.463 417.031 162.432Z" stroke="#FF0000" stroke-width="3" stroke-linecap="butt" fill="#FF0000" fill-rule="evenodd"/><path d="M437 96.5013 593 96.5013 593 135.273 437 135.273Z" fill="#000000" fill-rule="evenodd" fill-opacity="0"/><path d="M447.234 120.861 447.234 109.408 451.188 109.408C452.073 109.408 452.75 109.46 453.219 109.564 453.875 109.721 454.438 109.997 454.906 110.393 455.51 110.903 455.958 111.554 456.25 112.346 456.552 113.137 456.703 114.044 456.703 115.064 456.703 115.939 456.599 116.715 456.391 117.393 456.193 118.059 455.932 118.611 455.609 119.049 455.297 119.486 454.953 119.835 454.578 120.096 454.203 120.346 453.745 120.538 453.203 120.674 452.672 120.799 452.062 120.861 451.375 120.861L447.234 120.861ZM448.75 119.502 451.203 119.502C451.953 119.502 452.542 119.434 452.969 119.299 453.406 119.153 453.75 118.955 454 118.705 454.365 118.34 454.646 117.856 454.844 117.252 455.042 116.648 455.141 115.913 455.141 115.049 455.141 113.851 454.943 112.929 454.547 112.283 454.161 111.637 453.688 111.205 453.125 110.986 452.719 110.83 452.062 110.752 451.156 110.752L448.75 110.752 448.75 119.502ZM464.023 119.83C463.503 120.278 463.003 120.596 462.523 120.783 462.044 120.96 461.529 121.049 460.977 121.049 460.06 121.049 459.357 120.825 458.867 120.377 458.378 119.929 458.133 119.361 458.133 118.674 458.133 118.268 458.227 117.898 458.414 117.564 458.602 117.221 458.841 116.95 459.133 116.752 459.435 116.544 459.773 116.387 460.148 116.283 460.43 116.21 460.846 116.143 461.398 116.08 462.534 115.945 463.372 115.783 463.914 115.596 463.914 115.398 463.914 115.273 463.914 115.221 463.914 114.648 463.784 114.247 463.523 114.018 463.159 113.695 462.622 113.533 461.914 113.533 461.258 113.533 460.768 113.653 460.445 113.893 460.133 114.122 459.904 114.528 459.758 115.111L458.383 114.924C458.508 114.34 458.711 113.867 458.992 113.502 459.284 113.137 459.701 112.861 460.242 112.674 460.784 112.476 461.409 112.377 462.117 112.377 462.826 112.377 463.398 112.46 463.836 112.627 464.284 112.794 464.612 113.002 464.82 113.252 465.029 113.502 465.174 113.82 465.258 114.205 465.31 114.445 465.336 114.877 465.336 115.502L465.336 117.377C465.336 118.689 465.362 119.518 465.414 119.861 465.477 120.205 465.596 120.538 465.773 120.861L464.305 120.861C464.159 120.57 464.065 120.226 464.023 119.83ZM463.914 116.689C463.404 116.898 462.638 117.075 461.617 117.221 461.034 117.304 460.622 117.398 460.383 117.502 460.143 117.606 459.956 117.762 459.82 117.971 459.695 118.169 459.633 118.387 459.633 118.627 459.633 119.002 459.773 119.314 460.055 119.564 460.346 119.814 460.763 119.939 461.305 119.939 461.846 119.939 462.326 119.825 462.742 119.596 463.169 119.356 463.482 119.028 463.68 118.611 463.836 118.299 463.914 117.83 463.914 117.205L463.914 116.689ZM470.578 119.596 470.781 120.846C470.385 120.929 470.031 120.971 469.719 120.971 469.208 120.971 468.812 120.893 468.531 120.736 468.25 120.57 468.052 120.356 467.938 120.096 467.823 119.825 467.766 119.268 467.766 118.424L467.766 113.658 466.734 113.658 466.734 112.564 467.766 112.564 467.766 110.502 469.172 109.658 469.172 112.564 470.578 112.564 470.578 113.658 469.172 113.658 469.172 118.502C469.172 118.908 469.193 119.169 469.234 119.283 469.286 119.398 469.37 119.492 469.484 119.564 469.599 119.627 469.76 119.658 469.969 119.658 470.125 119.658 470.328 119.637 470.578 119.596ZM477.367 119.83C476.846 120.278 476.346 120.596 475.867 120.783 475.388 120.96 474.872 121.049 474.32 121.049 473.404 121.049 472.701 120.825 472.211 120.377 471.721 119.929 471.477 119.361 471.477 118.674 471.477 118.268 471.57 117.898 471.758 117.564 471.945 117.221 472.185 116.95 472.477 116.752 472.779 116.544 473.117 116.387 473.492 116.283 473.773 116.21 474.19 116.143 474.742 116.08 475.878 115.945 476.716 115.783 477.258 115.596 477.258 115.398 477.258 115.273 477.258 115.221 477.258 114.648 477.128 114.247 476.867 114.018 476.503 113.695 475.966 113.533 475.258 113.533 474.602 113.533 474.112 113.653 473.789 113.893 473.477 114.122 473.247 114.528 473.102 115.111L471.727 114.924C471.852 114.34 472.055 113.867 472.336 113.502 472.628 113.137 473.044 112.861 473.586 112.674 474.128 112.476 474.753 112.377 475.461 112.377 476.169 112.377 476.742 112.46 477.18 112.627 477.628 112.794 477.956 113.002 478.164 113.252 478.372 113.502 478.518 113.82 478.602 114.205 478.654 114.445 478.68 114.877 478.68 115.502L478.68 117.377C478.68 118.689 478.706 119.518 478.758 119.861 478.82 120.205 478.94 120.538 479.117 120.861L477.648 120.861C477.503 120.57 477.409 120.226 477.367 119.83ZM477.258 116.689C476.747 116.898 475.982 117.075 474.961 117.221 474.378 117.304 473.966 117.398 473.727 117.502 473.487 117.606 473.299 117.762 473.164 117.971 473.039 118.169 472.977 118.387 472.977 118.627 472.977 119.002 473.117 119.314 473.398 119.564 473.69 119.814 474.107 119.939 474.648 119.939 475.19 119.939 475.669 119.825 476.086 119.596 476.513 119.356 476.826 119.028 477.023 118.611 477.18 118.299 477.258 117.83 477.258 117.205L477.258 116.689ZM485.289 120.861 485.289 112.564 486.555 112.564 486.555 113.814C486.878 113.231 487.174 112.846 487.445 112.658 487.716 112.471 488.018 112.377 488.352 112.377 488.82 112.377 489.299 112.528 489.789 112.83L489.305 114.127C488.961 113.929 488.617 113.83 488.273 113.83 487.971 113.83 487.695 113.924 487.445 114.111 487.206 114.288 487.034 114.544 486.93 114.877 486.773 115.377 486.695 115.924 486.695 116.518L486.695 120.861 485.289 120.861ZM496.305 118.189 497.758 118.361C497.529 119.215 497.102 119.877 496.477 120.346 495.862 120.814 495.076 121.049 494.117 121.049 492.898 121.049 491.935 120.674 491.227 119.924 490.518 119.174 490.164 118.127 490.164 116.783 490.164 115.387 490.523 114.304 491.242 113.533 491.961 112.762 492.893 112.377 494.039 112.377 495.143 112.377 496.044 112.757 496.742 113.518 497.451 114.268 497.805 115.325 497.805 116.689 497.805 116.773 497.805 116.898 497.805 117.064L491.617 117.064C491.669 117.981 491.924 118.684 492.383 119.174 492.852 119.653 493.43 119.893 494.117 119.893 494.638 119.893 495.081 119.757 495.445 119.486 495.81 119.215 496.096 118.783 496.305 118.189ZM491.695 115.908 496.32 115.908C496.258 115.21 496.081 114.689 495.789 114.346 495.341 113.804 494.763 113.533 494.055 113.533 493.409 113.533 492.862 113.752 492.414 114.189 491.977 114.617 491.737 115.189 491.695 115.908ZM504.812 124.049 504.812 119.971C504.594 120.283 504.286 120.544 503.891 120.752 503.505 120.95 503.089 121.049 502.641 121.049 501.661 121.049 500.812 120.658 500.094 119.877 499.385 119.085 499.031 118.002 499.031 116.627 499.031 115.794 499.177 115.049 499.469 114.393 499.76 113.726 500.177 113.226 500.719 112.893 501.271 112.549 501.875 112.377 502.531 112.377 503.562 112.377 504.37 112.809 504.953 113.674L504.953 112.564 506.219 112.564 506.219 124.049 504.812 124.049ZM500.484 116.689C500.484 117.752 500.708 118.554 501.156 119.096 501.604 119.627 502.141 119.893 502.766 119.893 503.359 119.893 503.87 119.637 504.297 119.127 504.734 118.617 504.953 117.846 504.953 116.814 504.953 115.71 504.724 114.882 504.266 114.33 503.818 113.768 503.286 113.486 502.672 113.486 502.057 113.486 501.536 113.747 501.109 114.268 500.693 114.778 500.484 115.585 500.484 116.689ZM513.867 120.861 513.867 119.643C513.221 120.58 512.341 121.049 511.227 121.049 510.737 121.049 510.279 120.955 509.852 120.768 509.435 120.58 509.122 120.346 508.914 120.064 508.706 119.773 508.56 119.424 508.477 119.018 508.424 118.736 508.398 118.299 508.398 117.705L508.398 112.564 509.805 112.564 509.805 117.158C509.805 117.898 509.831 118.393 509.883 118.643 509.977 119.018 510.164 119.309 510.445 119.518 510.737 119.726 511.091 119.83 511.508 119.83 511.935 119.83 512.331 119.726 512.695 119.518 513.07 119.299 513.331 119.002 513.477 118.627 513.633 118.252 513.711 117.71 513.711 117.002L513.711 112.564 515.117 112.564 515.117 120.861 513.867 120.861ZM523 118.189 524.453 118.361C524.224 119.215 523.797 119.877 523.172 120.346 522.557 120.814 521.771 121.049 520.812 121.049 519.594 121.049 518.63 120.674 517.922 119.924 517.214 119.174 516.859 118.127 516.859 116.783 516.859 115.387 517.219 114.304 517.938 113.533 518.656 112.762 519.589 112.377 520.734 112.377 521.839 112.377 522.74 112.757 523.438 113.518 524.146 114.268 524.5 115.325 524.5 116.689 524.5 116.773 524.5 116.898 524.5 117.064L518.312 117.064C518.365 117.981 518.62 118.684 519.078 119.174 519.547 119.653 520.125 119.893 520.812 119.893 521.333 119.893 521.776 119.757 522.141 119.486 522.505 119.215 522.792 118.783 523 118.189ZM518.391 115.908 523.016 115.908C522.953 115.21 522.776 114.689 522.484 114.346 522.036 113.804 521.458 113.533 520.75 113.533 520.104 113.533 519.557 113.752 519.109 114.189 518.672 114.617 518.432 115.189 518.391 115.908ZM525.664 118.377 527.055 118.158C527.128 118.721 527.341 119.153 527.695 119.455 528.06 119.747 528.56 119.893 529.195 119.893 529.841 119.893 530.32 119.762 530.633 119.502 530.945 119.231 531.102 118.919 531.102 118.564 531.102 118.252 530.966 118.002 530.695 117.814 530.497 117.689 530.018 117.533 529.258 117.346 528.227 117.085 527.508 116.861 527.102 116.674 526.706 116.476 526.404 116.21 526.195 115.877 525.997 115.544 525.898 115.174 525.898 114.768 525.898 114.393 525.982 114.049 526.148 113.736 526.315 113.424 526.544 113.163 526.836 112.955 527.055 112.788 527.352 112.653 527.727 112.549 528.112 112.434 528.518 112.377 528.945 112.377 529.602 112.377 530.174 112.471 530.664 112.658 531.154 112.846 531.513 113.101 531.742 113.424 531.982 113.736 532.148 114.163 532.242 114.705L530.867 114.893C530.805 114.465 530.622 114.132 530.32 113.893 530.018 113.653 529.596 113.533 529.055 113.533 528.409 113.533 527.945 113.643 527.664 113.861 527.393 114.07 527.258 114.314 527.258 114.596 527.258 114.783 527.315 114.95 527.43 115.096 527.544 115.242 527.721 115.367 527.961 115.471 528.107 115.523 528.523 115.643 529.211 115.83 530.201 116.09 530.893 116.309 531.289 116.486 531.685 116.653 531.992 116.898 532.211 117.221 532.44 117.544 532.555 117.945 532.555 118.424 532.555 118.893 532.414 119.335 532.133 119.752 531.862 120.158 531.466 120.476 530.945 120.705 530.435 120.934 529.857 121.049 529.211 121.049 528.128 121.049 527.305 120.825 526.742 120.377 526.18 119.929 525.82 119.262 525.664 118.377ZM537.289 119.596 537.492 120.846C537.096 120.929 536.742 120.971 536.43 120.971 535.919 120.971 535.523 120.893 535.242 120.736 534.961 120.57 534.763 120.356 534.648 120.096 534.534 119.825 534.477 119.268 534.477 118.424L534.477 113.658 533.445 113.658 533.445 112.564 534.477 112.564 534.477 110.502 535.883 109.658 535.883 112.564 537.289 112.564 537.289 113.658 535.883 113.658 535.883 118.502C535.883 118.908 535.904 119.169 535.945 119.283 535.997 119.398 536.081 119.492 536.195 119.564 536.31 119.627 536.471 119.658 536.68 119.658 536.836 119.658 537.039 119.637 537.289 119.596Z" fill="#000000"/><path d="M437 123.992 593 123.992 593 162.764 437 162.764Z" fill="#000000" fill-rule="evenodd" fill-opacity="0"/><path d="M447.234 148.352 447.234 136.899 451.188 136.899C452.073 136.899 452.75 136.951 453.219 137.055 453.875 137.212 454.438 137.488 454.906 137.883 455.51 138.394 455.958 139.045 456.25 139.837 456.552 140.628 456.703 141.534 456.703 142.555 456.703 143.43 456.599 144.206 456.391 144.883 456.193 145.55 455.932 146.102 455.609 146.54 455.297 146.977 454.953 147.326 454.578 147.587 454.203 147.837 453.745 148.029 453.203 148.165 452.672 148.29 452.062 148.352 451.375 148.352L447.234 148.352ZM448.75 146.993 451.203 146.993C451.953 146.993 452.542 146.925 452.969 146.79 453.406 146.644 453.75 146.446 454 146.196 454.365 145.831 454.646 145.347 454.844 144.743 455.042 144.139 455.141 143.404 455.141 142.54 455.141 141.342 454.943 140.42 454.547 139.774 454.161 139.128 453.688 138.696 453.125 138.477 452.719 138.321 452.062 138.243 451.156 138.243L448.75 138.243 448.75 146.993ZM464.023 147.321C463.503 147.769 463.003 148.087 462.523 148.274 462.044 148.451 461.529 148.54 460.977 148.54 460.06 148.54 459.357 148.316 458.867 147.868 458.378 147.42 458.133 146.852 458.133 146.165 458.133 145.758 458.227 145.389 458.414 145.055 458.602 144.712 458.841 144.441 459.133 144.243 459.435 144.034 459.773 143.878 460.148 143.774 460.43 143.701 460.846 143.633 461.398 143.571 462.534 143.435 463.372 143.274 463.914 143.087 463.914 142.889 463.914 142.764 463.914 142.712 463.914 142.139 463.784 141.738 463.523 141.508 463.159 141.185 462.622 141.024 461.914 141.024 461.258 141.024 460.768 141.144 460.445 141.383 460.133 141.613 459.904 142.019 459.758 142.602L458.383 142.415C458.508 141.831 458.711 141.357 458.992 140.993 459.284 140.628 459.701 140.352 460.242 140.165 460.784 139.967 461.409 139.868 462.117 139.868 462.826 139.868 463.398 139.951 463.836 140.118 464.284 140.284 464.612 140.493 464.82 140.743 465.029 140.993 465.174 141.31 465.258 141.696 465.31 141.935 465.336 142.368 465.336 142.993L465.336 144.868C465.336 146.18 465.362 147.008 465.414 147.352 465.477 147.696 465.596 148.029 465.773 148.352L464.305 148.352C464.159 148.06 464.065 147.717 464.023 147.321ZM463.914 144.18C463.404 144.389 462.638 144.566 461.617 144.712 461.034 144.795 460.622 144.889 460.383 144.993 460.143 145.097 459.956 145.253 459.82 145.462 459.695 145.659 459.633 145.878 459.633 146.118 459.633 146.493 459.773 146.805 460.055 147.055 460.346 147.305 460.763 147.43 461.305 147.43 461.846 147.43 462.326 147.316 462.742 147.087 463.169 146.847 463.482 146.519 463.68 146.102 463.836 145.79 463.914 145.321 463.914 144.696L463.914 144.18ZM470.578 147.087 470.781 148.337C470.385 148.42 470.031 148.462 469.719 148.462 469.208 148.462 468.812 148.383 468.531 148.227 468.25 148.06 468.052 147.847 467.938 147.587 467.823 147.316 467.766 146.758 467.766 145.915L467.766 141.149 466.734 141.149 466.734 140.055 467.766 140.055 467.766 137.993 469.172 137.149 469.172 140.055 470.578 140.055 470.578 141.149 469.172 141.149 469.172 145.993C469.172 146.399 469.193 146.659 469.234 146.774 469.286 146.889 469.37 146.982 469.484 147.055 469.599 147.118 469.76 147.149 469.969 147.149 470.125 147.149 470.328 147.128 470.578 147.087ZM477.367 147.321C476.846 147.769 476.346 148.087 475.867 148.274 475.388 148.451 474.872 148.54 474.32 148.54 473.404 148.54 472.701 148.316 472.211 147.868 471.721 147.42 471.477 146.852 471.477 146.165 471.477 145.758 471.57 145.389 471.758 145.055 471.945 144.712 472.185 144.441 472.477 144.243 472.779 144.034 473.117 143.878 473.492 143.774 473.773 143.701 474.19 143.633 474.742 143.571 475.878 143.435 476.716 143.274 477.258 143.087 477.258 142.889 477.258 142.764 477.258 142.712 477.258 142.139 477.128 141.738 476.867 141.508 476.503 141.185 475.966 141.024 475.258 141.024 474.602 141.024 474.112 141.144 473.789 141.383 473.477 141.613 473.247 142.019 473.102 142.602L471.727 142.415C471.852 141.831 472.055 141.357 472.336 140.993 472.628 140.628 473.044 140.352 473.586 140.165 474.128 139.967 474.753 139.868 475.461 139.868 476.169 139.868 476.742 139.951 477.18 140.118 477.628 140.284 477.956 140.493 478.164 140.743 478.372 140.993 478.518 141.31 478.602 141.696 478.654 141.935 478.68 142.368 478.68 142.993L478.68 144.868C478.68 146.18 478.706 147.008 478.758 147.352 478.82 147.696 478.94 148.029 479.117 148.352L477.648 148.352C477.503 148.06 477.409 147.717 477.367 147.321ZM477.258 144.18C476.747 144.389 475.982 144.566 474.961 144.712 474.378 144.795 473.966 144.889 473.727 144.993 473.487 145.097 473.299 145.253 473.164 145.462 473.039 145.659 472.977 145.878 472.977 146.118 472.977 146.493 473.117 146.805 473.398 147.055 473.69 147.305 474.107 147.43 474.648 147.43 475.19 147.43 475.669 147.316 476.086 147.087 476.513 146.847 476.826 146.519 477.023 146.102 477.18 145.79 477.258 145.321 477.258 144.696L477.258 144.18ZM485.289 148.352 485.289 140.055 486.555 140.055 486.555 141.305C486.878 140.722 487.174 140.337 487.445 140.149 487.716 139.962 488.018 139.868 488.352 139.868 488.82 139.868 489.299 140.019 489.789 140.321L489.305 141.618C488.961 141.42 488.617 141.321 488.273 141.321 487.971 141.321 487.695 141.415 487.445 141.602 487.206 141.779 487.034 142.034 486.93 142.368 486.773 142.868 486.695 143.415 486.695 144.008L486.695 148.352 485.289 148.352ZM496.305 145.68 497.758 145.852C497.529 146.706 497.102 147.368 496.477 147.837 495.862 148.305 495.076 148.54 494.117 148.54 492.898 148.54 491.935 148.165 491.227 147.415 490.518 146.665 490.164 145.618 490.164 144.274 490.164 142.878 490.523 141.795 491.242 141.024 491.961 140.253 492.893 139.868 494.039 139.868 495.143 139.868 496.044 140.248 496.742 141.008 497.451 141.758 497.805 142.816 497.805 144.18 497.805 144.264 497.805 144.389 497.805 144.555L491.617 144.555C491.669 145.472 491.924 146.175 492.383 146.665 492.852 147.144 493.43 147.383 494.117 147.383 494.638 147.383 495.081 147.248 495.445 146.977 495.81 146.706 496.096 146.274 496.305 145.68ZM491.695 143.399 496.32 143.399C496.258 142.701 496.081 142.18 495.789 141.837 495.341 141.295 494.763 141.024 494.055 141.024 493.409 141.024 492.862 141.243 492.414 141.68 491.977 142.107 491.737 142.68 491.695 143.399ZM499.531 151.54 499.531 140.055 500.812 140.055 500.812 141.133C501.115 140.706 501.453 140.389 501.828 140.18 502.214 139.972 502.677 139.868 503.219 139.868 503.927 139.868 504.552 140.05 505.094 140.415 505.635 140.779 506.042 141.295 506.312 141.962 506.594 142.618 506.734 143.342 506.734 144.133 506.734 144.988 506.578 145.753 506.266 146.43 505.964 147.107 505.521 147.628 504.938 147.993 504.365 148.357 503.755 148.54 503.109 148.54 502.641 148.54 502.219 148.441 501.844 148.243 501.479 148.045 501.177 147.795 500.938 147.493L500.938 151.54 499.531 151.54ZM500.797 144.243C500.797 145.316 501.01 146.107 501.438 146.618 501.875 147.128 502.401 147.383 503.016 147.383 503.641 147.383 504.177 147.118 504.625 146.587 505.073 146.055 505.297 145.238 505.297 144.133 505.297 143.071 505.078 142.279 504.641 141.758 504.203 141.227 503.682 140.962 503.078 140.962 502.484 140.962 501.953 141.243 501.484 141.805 501.026 142.368 500.797 143.18 500.797 144.243ZM508.398 148.352 508.398 136.899 509.805 136.899 509.805 148.352 508.398 148.352ZM511.922 151.555 511.766 150.227C512.068 150.31 512.333 150.352 512.562 150.352 512.875 150.352 513.125 150.3 513.312 150.196 513.5 150.092 513.656 149.946 513.781 149.758 513.865 149.623 514.005 149.274 514.203 148.712 514.234 148.639 514.276 148.524 514.328 148.368L511.188 140.055 512.703 140.055 514.422 144.852C514.651 145.467 514.854 146.107 515.031 146.774 515.188 146.128 515.38 145.498 515.609 144.883L517.375 140.055 518.781 140.055 515.625 148.493C515.292 149.409 515.031 150.04 514.844 150.383 514.594 150.842 514.307 151.18 513.984 151.399 513.661 151.618 513.276 151.727 512.828 151.727 512.557 151.727 512.255 151.67 511.922 151.555Z" fill="#000000"/><path d="M437 147.992 593 147.992 593 186.764 437 186.764Z" fill="#000000" fill-rule="evenodd" fill-opacity="0"/><path d="M447.266 172.352 447.266 160.899 452.344 160.899C453.365 160.899 454.141 161.003 454.672 161.212 455.203 161.409 455.625 161.769 455.938 162.29 456.26 162.81 456.422 163.389 456.422 164.024 456.422 164.837 456.156 165.524 455.625 166.087 455.104 166.639 454.292 166.988 453.188 167.133 453.594 167.331 453.901 167.524 454.109 167.712 454.547 168.118 454.964 168.623 455.359 169.227L457.359 172.352 455.453 172.352 453.938 169.962C453.49 169.274 453.12 168.748 452.828 168.383 452.547 168.019 452.292 167.764 452.062 167.618 451.844 167.472 451.615 167.373 451.375 167.321 451.208 167.279 450.927 167.258 450.531 167.258L448.781 167.258 448.781 172.352 447.266 172.352ZM448.781 165.946 452.031 165.946C452.729 165.946 453.271 165.878 453.656 165.743 454.052 165.597 454.349 165.368 454.547 165.055 454.755 164.732 454.859 164.389 454.859 164.024 454.859 163.482 454.661 163.04 454.266 162.696 453.87 162.342 453.25 162.165 452.406 162.165L448.781 162.165 448.781 165.946ZM464.289 169.68 465.742 169.852C465.513 170.706 465.086 171.368 464.461 171.837 463.846 172.305 463.06 172.54 462.102 172.54 460.883 172.54 459.919 172.165 459.211 171.415 458.503 170.665 458.148 169.618 458.148 168.274 458.148 166.878 458.508 165.795 459.227 165.024 459.945 164.253 460.878 163.868 462.023 163.868 463.128 163.868 464.029 164.248 464.727 165.008 465.435 165.758 465.789 166.816 465.789 168.18 465.789 168.264 465.789 168.389 465.789 168.555L459.602 168.555C459.654 169.472 459.909 170.175 460.367 170.665 460.836 171.144 461.414 171.383 462.102 171.383 462.622 171.383 463.065 171.248 463.43 170.977 463.794 170.706 464.081 170.274 464.289 169.68ZM459.68 167.399 464.305 167.399C464.242 166.701 464.065 166.18 463.773 165.837 463.326 165.295 462.747 165.024 462.039 165.024 461.393 165.024 460.846 165.243 460.398 165.68 459.961 166.107 459.721 166.68 459.68 167.399ZM472.797 175.54 472.797 171.462C472.578 171.774 472.271 172.034 471.875 172.243 471.49 172.441 471.073 172.54 470.625 172.54 469.646 172.54 468.797 172.149 468.078 171.368 467.37 170.576 467.016 169.493 467.016 168.118 467.016 167.284 467.161 166.54 467.453 165.883 467.745 165.217 468.161 164.717 468.703 164.383 469.255 164.04 469.859 163.868 470.516 163.868 471.547 163.868 472.354 164.3 472.938 165.165L472.938 164.055 474.203 164.055 474.203 175.54 472.797 175.54ZM468.469 168.18C468.469 169.243 468.693 170.045 469.141 170.587 469.589 171.118 470.125 171.383 470.75 171.383 471.344 171.383 471.854 171.128 472.281 170.618 472.719 170.107 472.938 169.337 472.938 168.305 472.938 167.201 472.708 166.373 472.25 165.821 471.802 165.258 471.271 164.977 470.656 164.977 470.042 164.977 469.521 165.238 469.094 165.758 468.677 166.269 468.469 167.076 468.469 168.18ZM481.852 172.352 481.852 171.133C481.206 172.071 480.326 172.54 479.211 172.54 478.721 172.54 478.263 172.446 477.836 172.258 477.419 172.071 477.107 171.837 476.898 171.555 476.69 171.264 476.544 170.915 476.461 170.508 476.409 170.227 476.383 169.79 476.383 169.196L476.383 164.055 477.789 164.055 477.789 168.649C477.789 169.389 477.815 169.883 477.867 170.133 477.961 170.508 478.148 170.8 478.43 171.008 478.721 171.217 479.076 171.321 479.492 171.321 479.919 171.321 480.315 171.217 480.68 171.008 481.055 170.79 481.315 170.493 481.461 170.118 481.617 169.743 481.695 169.201 481.695 168.493L481.695 164.055 483.102 164.055 483.102 172.352 481.852 172.352ZM490.984 169.68 492.438 169.852C492.208 170.706 491.781 171.368 491.156 171.837 490.542 172.305 489.755 172.54 488.797 172.54 487.578 172.54 486.615 172.165 485.906 171.415 485.198 170.665 484.844 169.618 484.844 168.274 484.844 166.878 485.203 165.795 485.922 165.024 486.641 164.253 487.573 163.868 488.719 163.868 489.823 163.868 490.724 164.248 491.422 165.008 492.13 165.758 492.484 166.816 492.484 168.18 492.484 168.264 492.484 168.389 492.484 168.555L486.297 168.555C486.349 169.472 486.604 170.175 487.062 170.665 487.531 171.144 488.109 171.383 488.797 171.383 489.318 171.383 489.76 171.248 490.125 170.977 490.49 170.706 490.776 170.274 490.984 169.68ZM486.375 167.399 491 167.399C490.938 166.701 490.76 166.18 490.469 165.837 490.021 165.295 489.443 165.024 488.734 165.024 488.089 165.024 487.542 165.243 487.094 165.68 486.656 166.107 486.417 166.68 486.375 167.399ZM493.648 169.868 495.039 169.649C495.112 170.212 495.326 170.644 495.68 170.946 496.044 171.238 496.544 171.383 497.18 171.383 497.826 171.383 498.305 171.253 498.617 170.993 498.93 170.722 499.086 170.409 499.086 170.055 499.086 169.743 498.951 169.493 498.68 169.305 498.482 169.18 498.003 169.024 497.242 168.837 496.211 168.576 495.492 168.352 495.086 168.165 494.69 167.967 494.388 167.701 494.18 167.368 493.982 167.034 493.883 166.665 493.883 166.258 493.883 165.883 493.966 165.54 494.133 165.227 494.299 164.915 494.529 164.654 494.82 164.446 495.039 164.279 495.336 164.144 495.711 164.04 496.096 163.925 496.503 163.868 496.93 163.868 497.586 163.868 498.159 163.962 498.648 164.149 499.138 164.337 499.497 164.592 499.727 164.915 499.966 165.227 500.133 165.654 500.227 166.196L498.852 166.383C498.789 165.956 498.607 165.623 498.305 165.383 498.003 165.144 497.581 165.024 497.039 165.024 496.393 165.024 495.93 165.133 495.648 165.352 495.378 165.56 495.242 165.805 495.242 166.087 495.242 166.274 495.299 166.441 495.414 166.587 495.529 166.732 495.706 166.857 495.945 166.962 496.091 167.014 496.508 167.133 497.195 167.321 498.185 167.581 498.878 167.8 499.273 167.977 499.669 168.144 499.977 168.389 500.195 168.712 500.424 169.034 500.539 169.435 500.539 169.915 500.539 170.383 500.398 170.826 500.117 171.243 499.846 171.649 499.451 171.967 498.93 172.196 498.419 172.425 497.841 172.54 497.195 172.54 496.112 172.54 495.289 172.316 494.727 171.868 494.164 171.42 493.805 170.753 493.648 169.868ZM505.273 171.087 505.477 172.337C505.081 172.42 504.727 172.462 504.414 172.462 503.904 172.462 503.508 172.383 503.227 172.227 502.945 172.06 502.747 171.847 502.633 171.587 502.518 171.316 502.461 170.758 502.461 169.915L502.461 165.149 501.43 165.149 501.43 164.055 502.461 164.055 502.461 161.993 503.867 161.149 503.867 164.055 505.273 164.055 505.273 165.149 503.867 165.149 503.867 169.993C503.867 170.399 503.888 170.659 503.93 170.774 503.982 170.889 504.065 170.982 504.18 171.055 504.294 171.118 504.456 171.149 504.664 171.149 504.82 171.149 505.023 171.128 505.273 171.087ZM511.43 172.352 511.43 165.149 510.195 165.149 510.195 164.055 511.43 164.055 511.43 163.165C511.43 162.613 511.482 162.201 511.586 161.93 511.721 161.566 511.956 161.269 512.289 161.04 512.633 160.81 513.112 160.696 513.727 160.696 514.122 160.696 514.56 160.743 515.039 160.837L514.836 162.071C514.544 162.019 514.268 161.993 514.008 161.993 513.581 161.993 513.279 162.087 513.102 162.274 512.924 162.451 512.836 162.79 512.836 163.29L512.836 164.055 514.445 164.055 514.445 165.149 512.836 165.149 512.836 172.352 511.43 172.352ZM520.953 171.321C520.432 171.769 519.932 172.087 519.453 172.274 518.974 172.451 518.458 172.54 517.906 172.54 516.99 172.54 516.286 172.316 515.797 171.868 515.307 171.42 515.062 170.852 515.062 170.165 515.062 169.758 515.156 169.389 515.344 169.055 515.531 168.712 515.771 168.441 516.062 168.243 516.365 168.034 516.703 167.878 517.078 167.774 517.359 167.701 517.776 167.633 518.328 167.571 519.464 167.435 520.302 167.274 520.844 167.087 520.844 166.889 520.844 166.764 520.844 166.712 520.844 166.139 520.714 165.738 520.453 165.508 520.089 165.185 519.552 165.024 518.844 165.024 518.188 165.024 517.698 165.144 517.375 165.383 517.062 165.613 516.833 166.019 516.688 166.602L515.312 166.415C515.438 165.831 515.641 165.357 515.922 164.993 516.214 164.628 516.63 164.352 517.172 164.165 517.714 163.967 518.339 163.868 519.047 163.868 519.755 163.868 520.328 163.951 520.766 164.118 521.214 164.284 521.542 164.493 521.75 164.743 521.958 164.993 522.104 165.31 522.188 165.696 522.24 165.935 522.266 166.368 522.266 166.993L522.266 168.868C522.266 170.18 522.292 171.008 522.344 171.352 522.406 171.696 522.526 172.029 522.703 172.352L521.234 172.352C521.089 172.06 520.995 171.717 520.953 171.321ZM520.844 168.18C520.333 168.389 519.568 168.566 518.547 168.712 517.964 168.795 517.552 168.889 517.312 168.993 517.073 169.097 516.885 169.253 516.75 169.462 516.625 169.659 516.562 169.878 516.562 170.118 516.562 170.493 516.703 170.805 516.984 171.055 517.276 171.305 517.693 171.43 518.234 171.43 518.776 171.43 519.255 171.316 519.672 171.087 520.099 170.847 520.411 170.519 520.609 170.102 520.766 169.79 520.844 169.321 520.844 168.696L520.844 168.18ZM524.445 162.508 524.445 160.899 525.852 160.899 525.852 162.508 524.445 162.508ZM524.445 172.352 524.445 164.055 525.852 164.055 525.852 172.352 524.445 172.352ZM527.969 172.352 527.969 160.899 529.375 160.899 529.375 172.352 527.969 172.352ZM537.227 169.68 538.68 169.852C538.451 170.706 538.023 171.368 537.398 171.837 536.784 172.305 535.997 172.54 535.039 172.54 533.82 172.54 532.857 172.165 532.148 171.415 531.44 170.665 531.086 169.618 531.086 168.274 531.086 166.878 531.445 165.795 532.164 165.024 532.883 164.253 533.815 163.868 534.961 163.868 536.065 163.868 536.966 164.248 537.664 165.008 538.372 165.758 538.727 166.816 538.727 168.18 538.727 168.264 538.727 168.389 538.727 168.555L532.539 168.555C532.591 169.472 532.846 170.175 533.305 170.665 533.773 171.144 534.352 171.383 535.039 171.383 535.56 171.383 536.003 171.248 536.367 170.977 536.732 170.706 537.018 170.274 537.227 169.68ZM532.617 167.399 537.242 167.399C537.18 166.701 537.003 166.18 536.711 165.837 536.263 165.295 535.685 165.024 534.977 165.024 534.331 165.024 533.784 165.243 533.336 165.68 532.898 166.107 532.659 166.68 532.617 167.399ZM545.828 172.352 545.828 171.305C545.307 172.128 544.536 172.54 543.516 172.54 542.849 172.54 542.24 172.357 541.688 171.993 541.135 171.628 540.703 171.118 540.391 170.462 540.089 169.805 539.938 169.055 539.938 168.212 539.938 167.378 540.073 166.628 540.344 165.962 540.625 165.284 541.042 164.769 541.594 164.415 542.146 164.05 542.766 163.868 543.453 163.868 543.953 163.868 544.396 163.972 544.781 164.18 545.177 164.389 545.495 164.665 545.734 165.008L545.734 160.899 547.141 160.899 547.141 172.352 545.828 172.352ZM541.391 168.212C541.391 169.274 541.615 170.071 542.062 170.602 542.51 171.123 543.036 171.383 543.641 171.383 544.255 171.383 544.776 171.133 545.203 170.633 545.641 170.123 545.859 169.352 545.859 168.321 545.859 167.185 545.641 166.352 545.203 165.821 544.766 165.29 544.224 165.024 543.578 165.024 542.953 165.024 542.432 165.279 542.016 165.79 541.599 166.3 541.391 167.107 541.391 168.212Z" fill="#000000"/><path d="M61 176.501 167.394 176.501 167.394 215.273 61 215.273Z" fill="#000000" fill-rule="evenodd" fill-opacity="0"/><path d="M71.2656 200.861 71.2656 189.408 76.3438 189.408C77.3646 189.408 78.1406 189.512 78.6719 189.721 79.2031 189.919 79.625 190.278 79.9375 190.799 80.2604 191.32 80.4219 191.898 80.4219 192.533 80.4219 193.346 80.1562 194.033 79.625 194.596 79.1042 195.148 78.2917 195.497 77.1875 195.643 77.5938 195.84 77.901 196.033 78.1094 196.221 78.5469 196.627 78.9635 197.132 79.3594 197.736L81.3594 200.861 79.4531 200.861 77.9375 198.471C77.4896 197.783 77.1198 197.257 76.8281 196.893 76.5469 196.528 76.2917 196.273 76.0625 196.127 75.8438 195.981 75.6146 195.882 75.375 195.83 75.2083 195.788 74.9271 195.768 74.5312 195.768L72.7812 195.768 72.7812 200.861 71.2656 200.861ZM72.7812 194.455 76.0312 194.455C76.7292 194.455 77.2708 194.387 77.6562 194.252 78.0521 194.106 78.349 193.877 78.5469 193.564 78.7552 193.242 78.8594 192.898 78.8594 192.533 78.8594 191.992 78.6615 191.549 78.2656 191.205 77.8698 190.851 77.25 190.674 76.4062 190.674L72.7812 190.674 72.7812 194.455ZM88.2891 198.189 89.7422 198.361C89.513 199.215 89.0859 199.877 88.4609 200.346 87.8464 200.814 87.0599 201.049 86.1016 201.049 84.8828 201.049 83.9193 200.674 83.2109 199.924 82.5026 199.174 82.1484 198.127 82.1484 196.783 82.1484 195.387 82.5078 194.304 83.2266 193.533 83.9453 192.762 84.8776 192.377 86.0234 192.377 87.1276 192.377 88.0286 192.757 88.7266 193.518 89.4349 194.268 89.7891 195.325 89.7891 196.689 89.7891 196.773 89.7891 196.898 89.7891 197.064L83.6016 197.064C83.6536 197.981 83.9089 198.684 84.3672 199.174 84.8359 199.653 85.4141 199.893 86.1016 199.893 86.6224 199.893 87.0651 199.757 87.4297 199.486 87.7943 199.215 88.0807 198.783 88.2891 198.189ZM83.6797 195.908 88.3047 195.908C88.2422 195.21 88.0651 194.689 87.7734 194.346 87.3255 193.804 86.7474 193.533 86.0391 193.533 85.3932 193.533 84.8464 193.752 84.3984 194.189 83.9609 194.617 83.7214 195.189 83.6797 195.908ZM96.7969 204.049 96.7969 199.971C96.5781 200.283 96.2708 200.544 95.875 200.752 95.4896 200.95 95.0729 201.049 94.625 201.049 93.6458 201.049 92.7969 200.658 92.0781 199.877 91.3698 199.085 91.0156 198.002 91.0156 196.627 91.0156 195.794 91.1615 195.049 91.4531 194.393 91.7448 193.726 92.1615 193.226 92.7031 192.893 93.2552 192.549 93.8594 192.377 94.5156 192.377 95.5469 192.377 96.3542 192.809 96.9375 193.674L96.9375 192.564 98.2031 192.564 98.2031 204.049 96.7969 204.049ZM92.4688 196.689C92.4688 197.752 92.6927 198.554 93.1406 199.096 93.5885 199.627 94.125 199.893 94.75 199.893 95.3438 199.893 95.8542 199.637 96.2812 199.127 96.7188 198.617 96.9375 197.846 96.9375 196.814 96.9375 195.71 96.7083 194.882 96.25 194.33 95.8021 193.768 95.2708 193.486 94.6562 193.486 94.0417 193.486 93.5208 193.747 93.0938 194.268 92.6771 194.778 92.4688 195.585 92.4688 196.689ZM105.852 200.861 105.852 199.643C105.206 200.58 104.326 201.049 103.211 201.049 102.721 201.049 102.263 200.955 101.836 200.768 101.419 200.58 101.107 200.346 100.898 200.064 100.69 199.773 100.544 199.424 100.461 199.018 100.409 198.736 100.383 198.299 100.383 197.705L100.383 192.564 101.789 192.564 101.789 197.158C101.789 197.898 101.815 198.393 101.867 198.643 101.961 199.018 102.148 199.309 102.43 199.518 102.721 199.726 103.076 199.83 103.492 199.83 103.919 199.83 104.315 199.726 104.68 199.518 105.055 199.299 105.315 199.002 105.461 198.627 105.617 198.252 105.695 197.71 105.695 197.002L105.695 192.564 107.102 192.564 107.102 200.861 105.852 200.861ZM114.984 198.189 116.438 198.361C116.208 199.215 115.781 199.877 115.156 200.346 114.542 200.814 113.755 201.049 112.797 201.049 111.578 201.049 110.615 200.674 109.906 199.924 109.198 199.174 108.844 198.127 108.844 196.783 108.844 195.387 109.203 194.304 109.922 193.533 110.641 192.762 111.573 192.377 112.719 192.377 113.823 192.377 114.724 192.757 115.422 193.518 116.13 194.268 116.484 195.325 116.484 196.689 116.484 196.773 116.484 196.898 116.484 197.064L110.297 197.064C110.349 197.981 110.604 198.684 111.062 199.174 111.531 199.653 112.109 199.893 112.797 199.893 113.318 199.893 113.76 199.757 114.125 199.486 114.49 199.215 114.776 198.783 114.984 198.189ZM110.375 195.908 115 195.908C114.938 195.21 114.76 194.689 114.469 194.346 114.021 193.804 113.443 193.533 112.734 193.533 112.089 193.533 111.542 193.752 111.094 194.189 110.656 194.617 110.417 195.189 110.375 195.908ZM117.648 198.377 119.039 198.158C119.112 198.721 119.326 199.153 119.68 199.455 120.044 199.747 120.544 199.893 121.18 199.893 121.826 199.893 122.305 199.762 122.617 199.502 122.93 199.231 123.086 198.919 123.086 198.564 123.086 198.252 122.951 198.002 122.68 197.814 122.482 197.689 122.003 197.533 121.242 197.346 120.211 197.085 119.492 196.861 119.086 196.674 118.69 196.476 118.388 196.21 118.18 195.877 117.982 195.544 117.883 195.174 117.883 194.768 117.883 194.393 117.966 194.049 118.133 193.736 118.299 193.424 118.529 193.163 118.82 192.955 119.039 192.788 119.336 192.653 119.711 192.549 120.096 192.434 120.503 192.377 120.93 192.377 121.586 192.377 122.159 192.471 122.648 192.658 123.138 192.846 123.497 193.101 123.727 193.424 123.966 193.736 124.133 194.163 124.227 194.705L122.852 194.893C122.789 194.465 122.607 194.132 122.305 193.893 122.003 193.653 121.581 193.533 121.039 193.533 120.393 193.533 119.93 193.643 119.648 193.861 119.378 194.07 119.242 194.314 119.242 194.596 119.242 194.783 119.299 194.95 119.414 195.096 119.529 195.242 119.706 195.367 119.945 195.471 120.091 195.523 120.508 195.643 121.195 195.83 122.185 196.09 122.878 196.309 123.273 196.486 123.669 196.653 123.977 196.898 124.195 197.221 124.424 197.544 124.539 197.945 124.539 198.424 124.539 198.893 124.398 199.335 124.117 199.752 123.846 200.158 123.451 200.476 122.93 200.705 122.419 200.934 121.841 201.049 121.195 201.049 120.112 201.049 119.289 200.825 118.727 200.377 118.164 199.929 117.805 199.262 117.648 198.377ZM129.273 199.596 129.477 200.846C129.081 200.929 128.727 200.971 128.414 200.971 127.904 200.971 127.508 200.893 127.227 200.736 126.945 200.57 126.747 200.356 126.633 200.096 126.518 199.825 126.461 199.268 126.461 198.424L126.461 193.658 125.43 193.658 125.43 192.564 126.461 192.564 126.461 190.502 127.867 189.658 127.867 192.564 129.273 192.564 129.273 193.658 127.867 193.658 127.867 198.502C127.867 198.908 127.888 199.169 127.93 199.283 127.982 199.398 128.065 199.492 128.18 199.564 128.294 199.627 128.456 199.658 128.664 199.658 128.82 199.658 129.023 199.637 129.273 199.596ZM130.125 196.705C130.125 195.174 130.552 194.038 131.406 193.299 132.125 192.684 132.995 192.377 134.016 192.377 135.161 192.377 136.094 192.752 136.812 193.502 137.542 194.242 137.906 195.273 137.906 196.596 137.906 197.658 137.745 198.497 137.422 199.111 137.099 199.726 136.63 200.205 136.016 200.549 135.411 200.882 134.745 201.049 134.016 201.049 132.859 201.049 131.922 200.679 131.203 199.939 130.484 199.189 130.125 198.111 130.125 196.705ZM131.578 196.705C131.578 197.768 131.807 198.564 132.266 199.096 132.734 199.627 133.318 199.893 134.016 199.893 134.714 199.893 135.292 199.627 135.75 199.096 136.219 198.564 136.453 197.752 136.453 196.658 136.453 195.637 136.219 194.861 135.75 194.33 135.292 193.799 134.714 193.533 134.016 193.533 133.318 193.533 132.734 193.799 132.266 194.33 131.807 194.851 131.578 195.643 131.578 196.705ZM139.539 200.861 139.539 192.564 140.805 192.564 140.805 193.814C141.128 193.231 141.424 192.846 141.695 192.658 141.966 192.471 142.268 192.377 142.602 192.377 143.07 192.377 143.549 192.528 144.039 192.83L143.555 194.127C143.211 193.929 142.867 193.83 142.523 193.83 142.221 193.83 141.945 193.924 141.695 194.111 141.456 194.288 141.284 194.544 141.18 194.877 141.023 195.377 140.945 195.924 140.945 196.518L140.945 200.861 139.539 200.861Z" fill="#000000"/><path d="M496.436 443.155 535.52 443.155 535.52 480.058C515.978 480.058 515.978 494.119 496.436 486.13Z" fill="#FFF2CC" fill-rule="evenodd"/><path d="M496.436 443.155 535.52 443.155 535.52 480.058C515.978 480.058 515.978 494.119 496.436 486.13Z" stroke="#000000" stroke-linecap="butt" stroke-linejoin="round" fill-rule="evenodd"/><path d="M503 469.501 531 469.501" fill="#000000" fill-rule="evenodd" fill-opacity="0"/><path d="M503 469.501 531 469.501" stroke="#000000" stroke-linecap="butt" stroke-linejoin="round" fill-rule="evenodd"/><path d="M503 461.501 531 461.501" fill="#000000" fill-rule="evenodd" fill-opacity="0"/><path d="M503 461.501 531 461.501" stroke="#000000" stroke-linecap="butt" stroke-linejoin="round" fill-rule="evenodd"/><path d="M503 453.501 531 453.501" fill="#000000" fill-rule="evenodd" fill-opacity="0"/><path d="M503 453.501 531 453.501" stroke="#000000" stroke-linecap="butt" stroke-linejoin="round" fill-rule="evenodd"/><path d="M535.52 437.077 641.913 437.077 641.913 495.251 535.52 495.251Z" fill="#000000" fill-rule="evenodd" fill-opacity="0"/><path d="M545.785 462.324 545.785 450.871 550.863 450.871C551.884 450.871 552.66 450.975 553.192 451.183 553.723 451.381 554.145 451.741 554.457 452.262 554.78 452.782 554.942 453.361 554.942 453.996 554.942 454.808 554.676 455.496 554.145 456.058 553.624 456.611 552.811 456.959 551.707 457.105 552.113 457.303 552.421 457.496 552.629 457.683 553.067 458.09 553.483 458.595 553.879 459.199L555.879 462.324 553.973 462.324 552.457 459.933C552.009 459.246 551.64 458.72 551.348 458.355 551.067 457.991 550.811 457.736 550.582 457.59 550.363 457.444 550.134 457.345 549.895 457.293 549.728 457.251 549.447 457.23 549.051 457.23L547.301 457.23 547.301 462.324 545.785 462.324ZM547.301 455.918 550.551 455.918C551.249 455.918 551.791 455.85 552.176 455.715 552.572 455.569 552.869 455.34 553.067 455.027 553.275 454.704 553.379 454.361 553.379 453.996 553.379 453.454 553.181 453.012 552.785 452.668 552.39 452.314 551.77 452.137 550.926 452.137L547.301 452.137 547.301 455.918ZM562.809 459.652 564.262 459.824C564.033 460.678 563.606 461.34 562.981 461.808 562.366 462.277 561.58 462.512 560.621 462.512 559.403 462.512 558.439 462.137 557.731 461.387 557.022 460.637 556.668 459.59 556.668 458.246 556.668 456.85 557.028 455.767 557.746 454.996 558.465 454.225 559.397 453.84 560.543 453.84 561.647 453.84 562.548 454.22 563.246 454.98 563.955 455.73 564.309 456.788 564.309 458.152 564.309 458.236 564.309 458.361 564.309 458.527L558.121 458.527C558.173 459.444 558.429 460.147 558.887 460.637 559.356 461.116 559.934 461.355 560.621 461.355 561.142 461.355 561.585 461.22 561.949 460.949 562.314 460.678 562.6 460.246 562.809 459.652ZM558.199 457.371 562.824 457.371C562.762 456.673 562.585 456.152 562.293 455.808 561.845 455.267 561.267 454.996 560.559 454.996 559.913 454.996 559.366 455.215 558.918 455.652 558.481 456.079 558.241 456.652 558.199 457.371ZM571.317 465.512 571.317 461.433C571.098 461.746 570.791 462.006 570.395 462.215 570.009 462.413 569.593 462.512 569.145 462.512 568.166 462.512 567.317 462.121 566.598 461.34 565.89 460.548 565.535 459.465 565.535 458.09 565.535 457.256 565.681 456.512 565.973 455.855 566.265 455.189 566.681 454.689 567.223 454.355 567.775 454.012 568.379 453.84 569.035 453.84 570.067 453.84 570.874 454.272 571.457 455.137L571.457 454.027 572.723 454.027 572.723 465.512 571.317 465.512ZM566.988 458.152C566.988 459.215 567.212 460.017 567.66 460.558 568.108 461.09 568.645 461.355 569.27 461.355 569.863 461.355 570.374 461.1 570.801 460.59 571.238 460.079 571.457 459.308 571.457 458.277 571.457 457.173 571.228 456.345 570.77 455.793 570.322 455.23 569.791 454.949 569.176 454.949 568.561 454.949 568.041 455.209 567.613 455.73 567.197 456.241 566.988 457.048 566.988 458.152ZM580.371 462.324 580.371 461.105C579.725 462.043 578.845 462.512 577.731 462.512 577.241 462.512 576.783 462.418 576.356 462.23 575.939 462.043 575.626 461.808 575.418 461.527 575.21 461.236 575.064 460.887 574.981 460.48 574.929 460.199 574.903 459.762 574.903 459.168L574.903 454.027 576.309 454.027 576.309 458.621C576.309 459.361 576.335 459.855 576.387 460.105 576.481 460.48 576.668 460.772 576.949 460.98 577.241 461.189 577.595 461.293 578.012 461.293 578.439 461.293 578.835 461.189 579.199 460.98 579.574 460.762 579.835 460.465 579.981 460.09 580.137 459.715 580.215 459.173 580.215 458.465L580.215 454.027 581.621 454.027 581.621 462.324 580.371 462.324ZM589.504 459.652 590.957 459.824C590.728 460.678 590.301 461.34 589.676 461.808 589.061 462.277 588.275 462.512 587.317 462.512 586.098 462.512 585.134 462.137 584.426 461.387 583.718 460.637 583.363 459.59 583.363 458.246 583.363 456.85 583.723 455.767 584.442 454.996 585.16 454.225 586.093 453.84 587.238 453.84 588.343 453.84 589.244 454.22 589.942 454.98 590.65 455.73 591.004 456.788 591.004 458.152 591.004 458.236 591.004 458.361 591.004 458.527L584.817 458.527C584.869 459.444 585.124 460.147 585.582 460.637 586.051 461.116 586.629 461.355 587.317 461.355 587.837 461.355 588.28 461.22 588.645 460.949 589.009 460.678 589.296 460.246 589.504 459.652ZM584.895 457.371 589.52 457.371C589.457 456.673 589.28 456.152 588.988 455.808 588.541 455.267 587.962 454.996 587.254 454.996 586.608 454.996 586.061 455.215 585.613 455.652 585.176 456.079 584.936 456.652 584.895 457.371ZM592.168 459.84 593.559 459.621C593.632 460.183 593.845 460.616 594.199 460.918 594.564 461.209 595.064 461.355 595.699 461.355 596.345 461.355 596.824 461.225 597.137 460.965 597.449 460.694 597.606 460.381 597.606 460.027 597.606 459.715 597.47 459.465 597.199 459.277 597.001 459.152 596.522 458.996 595.762 458.808 594.731 458.548 594.012 458.324 593.606 458.137 593.21 457.939 592.908 457.673 592.699 457.34 592.501 457.006 592.403 456.637 592.403 456.23 592.403 455.855 592.486 455.512 592.653 455.199 592.819 454.887 593.048 454.626 593.34 454.418 593.559 454.251 593.856 454.116 594.231 454.012 594.616 453.897 595.022 453.84 595.449 453.84 596.106 453.84 596.679 453.933 597.168 454.121 597.658 454.308 598.017 454.564 598.246 454.887 598.486 455.199 598.653 455.626 598.746 456.168L597.371 456.355C597.309 455.928 597.126 455.595 596.824 455.355 596.522 455.116 596.1 454.996 595.559 454.996 594.913 454.996 594.449 455.105 594.168 455.324 593.897 455.532 593.762 455.777 593.762 456.058 593.762 456.246 593.819 456.413 593.934 456.558 594.048 456.704 594.225 456.829 594.465 456.933 594.611 456.986 595.028 457.105 595.715 457.293 596.705 457.553 597.397 457.772 597.793 457.949 598.189 458.116 598.496 458.361 598.715 458.683 598.944 459.006 599.059 459.407 599.059 459.887 599.059 460.355 598.918 460.798 598.637 461.215 598.366 461.621 597.97 461.939 597.449 462.168 596.939 462.397 596.361 462.512 595.715 462.512 594.632 462.512 593.809 462.288 593.246 461.84 592.684 461.392 592.324 460.725 592.168 459.84ZM603.793 461.058 603.996 462.308C603.6 462.392 603.246 462.433 602.934 462.433 602.423 462.433 602.028 462.355 601.746 462.199 601.465 462.032 601.267 461.819 601.153 461.558 601.038 461.288 600.981 460.73 600.981 459.887L600.981 455.121 599.949 455.121 599.949 454.027 600.981 454.027 600.981 451.965 602.387 451.121 602.387 454.027 603.793 454.027 603.793 455.121 602.387 455.121 602.387 459.965C602.387 460.371 602.408 460.631 602.449 460.746 602.501 460.861 602.585 460.954 602.699 461.027 602.814 461.09 602.975 461.121 603.184 461.121 603.34 461.121 603.543 461.1 603.793 461.058ZM610.848 459.652 612.301 459.824C612.072 460.678 611.645 461.34 611.02 461.808 610.405 462.277 609.619 462.512 608.66 462.512 607.442 462.512 606.478 462.137 605.77 461.387 605.061 460.637 604.707 459.59 604.707 458.246 604.707 456.85 605.067 455.767 605.785 454.996 606.504 454.225 607.436 453.84 608.582 453.84 609.686 453.84 610.587 454.22 611.285 454.98 611.994 455.73 612.348 456.788 612.348 458.152 612.348 458.236 612.348 458.361 612.348 458.527L606.16 458.527C606.212 459.444 606.468 460.147 606.926 460.637 607.395 461.116 607.973 461.355 608.66 461.355 609.181 461.355 609.624 461.22 609.988 460.949 610.353 460.678 610.64 460.246 610.848 459.652ZM606.238 457.371 610.863 457.371C610.801 456.673 610.624 456.152 610.332 455.808 609.884 455.267 609.306 454.996 608.598 454.996 607.952 454.996 607.405 455.215 606.957 455.652 606.52 456.079 606.28 456.652 606.238 457.371ZM619.449 462.324 619.449 461.277C618.929 462.1 618.158 462.512 617.137 462.512 616.47 462.512 615.861 462.329 615.309 461.965 614.757 461.6 614.324 461.09 614.012 460.433 613.71 459.777 613.559 459.027 613.559 458.183 613.559 457.35 613.694 456.6 613.965 455.933 614.246 455.256 614.663 454.741 615.215 454.387 615.767 454.022 616.387 453.84 617.074 453.84 617.574 453.84 618.017 453.944 618.403 454.152 618.798 454.361 619.116 454.637 619.356 454.98L619.356 450.871 620.762 450.871 620.762 462.324 619.449 462.324ZM615.012 458.183C615.012 459.246 615.236 460.043 615.684 460.574 616.132 461.095 616.658 461.355 617.262 461.355 617.876 461.355 618.397 461.105 618.824 460.605 619.262 460.095 619.481 459.324 619.481 458.293 619.481 457.157 619.262 456.324 618.824 455.793 618.387 455.262 617.845 454.996 617.199 454.996 616.574 454.996 616.054 455.251 615.637 455.762 615.22 456.272 615.012 457.079 615.012 458.183Z" fill="#000000"/><path d="M545.567 481.524 545.567 473.227 546.832 473.227 546.832 474.477C547.155 473.894 547.452 473.508 547.723 473.321 547.994 473.133 548.296 473.04 548.629 473.04 549.098 473.04 549.577 473.191 550.067 473.493L549.582 474.79C549.238 474.592 548.895 474.493 548.551 474.493 548.249 474.493 547.973 474.587 547.723 474.774 547.483 474.951 547.311 475.206 547.207 475.54 547.051 476.04 546.973 476.587 546.973 477.18L546.973 481.524 545.567 481.524ZM556.582 478.852 558.035 479.024C557.806 479.878 557.379 480.54 556.754 481.008 556.14 481.477 555.353 481.712 554.395 481.712 553.176 481.712 552.212 481.337 551.504 480.587 550.796 479.837 550.442 478.79 550.442 477.446 550.442 476.05 550.801 474.967 551.52 474.196 552.238 473.425 553.171 473.04 554.317 473.04 555.421 473.04 556.322 473.42 557.02 474.18 557.728 474.93 558.082 475.988 558.082 477.352 558.082 477.436 558.082 477.561 558.082 477.727L551.895 477.727C551.947 478.644 552.202 479.347 552.66 479.837 553.129 480.316 553.707 480.555 554.395 480.555 554.916 480.555 555.358 480.42 555.723 480.149 556.087 479.878 556.374 479.446 556.582 478.852ZM551.973 476.571 556.598 476.571C556.535 475.873 556.358 475.352 556.067 475.008 555.619 474.467 555.041 474.196 554.332 474.196 553.686 474.196 553.14 474.415 552.692 474.852 552.254 475.279 552.015 475.852 551.973 476.571ZM559.246 479.04 560.637 478.821C560.71 479.383 560.923 479.816 561.278 480.118 561.642 480.409 562.142 480.555 562.778 480.555 563.423 480.555 563.903 480.425 564.215 480.165 564.528 479.894 564.684 479.581 564.684 479.227 564.684 478.915 564.548 478.665 564.278 478.477 564.08 478.352 563.6 478.196 562.84 478.008 561.809 477.748 561.09 477.524 560.684 477.337 560.288 477.139 559.986 476.873 559.778 476.54 559.58 476.206 559.481 475.837 559.481 475.43 559.481 475.055 559.564 474.712 559.731 474.399 559.897 474.087 560.127 473.826 560.418 473.618 560.637 473.451 560.934 473.316 561.309 473.212 561.694 473.097 562.1 473.04 562.528 473.04 563.184 473.04 563.757 473.133 564.246 473.321 564.736 473.508 565.095 473.764 565.324 474.087 565.564 474.399 565.731 474.826 565.824 475.368L564.449 475.555C564.387 475.128 564.205 474.795 563.903 474.555 563.6 474.316 563.179 474.196 562.637 474.196 561.991 474.196 561.528 474.305 561.246 474.524 560.975 474.732 560.84 474.977 560.84 475.258 560.84 475.446 560.897 475.613 561.012 475.758 561.126 475.904 561.304 476.029 561.543 476.133 561.689 476.186 562.106 476.305 562.793 476.493 563.783 476.753 564.475 476.972 564.871 477.149 565.267 477.316 565.574 477.561 565.793 477.883 566.022 478.206 566.137 478.607 566.137 479.087 566.137 479.555 565.996 479.998 565.715 480.415 565.444 480.821 565.048 481.139 564.528 481.368 564.017 481.597 563.439 481.712 562.793 481.712 561.71 481.712 560.887 481.488 560.324 481.04 559.762 480.592 559.403 479.925 559.246 479.04ZM567.278 477.368C567.278 475.837 567.705 474.701 568.559 473.962 569.278 473.347 570.147 473.04 571.168 473.04 572.314 473.04 573.246 473.415 573.965 474.165 574.694 474.904 575.059 475.936 575.059 477.258 575.059 478.321 574.897 479.159 574.574 479.774 574.251 480.389 573.783 480.868 573.168 481.212 572.564 481.545 571.897 481.712 571.168 481.712 570.012 481.712 569.074 481.342 568.356 480.602 567.637 479.852 567.278 478.774 567.278 477.368ZM568.731 477.368C568.731 478.43 568.96 479.227 569.418 479.758 569.887 480.29 570.47 480.555 571.168 480.555 571.866 480.555 572.444 480.29 572.903 479.758 573.371 479.227 573.606 478.415 573.606 477.321 573.606 476.3 573.371 475.524 572.903 474.993 572.444 474.462 571.866 474.196 571.168 474.196 570.47 474.196 569.887 474.462 569.418 474.993 568.96 475.514 568.731 476.305 568.731 477.368ZM582.145 481.524 582.145 480.305C581.499 481.243 580.619 481.712 579.504 481.712 579.015 481.712 578.556 481.618 578.129 481.43 577.712 481.243 577.4 481.008 577.192 480.727 576.983 480.436 576.837 480.087 576.754 479.68 576.702 479.399 576.676 478.962 576.676 478.368L576.676 473.227 578.082 473.227 578.082 477.821C578.082 478.561 578.108 479.055 578.16 479.305 578.254 479.68 578.442 479.972 578.723 480.18 579.015 480.389 579.369 480.493 579.785 480.493 580.212 480.493 580.608 480.389 580.973 480.18 581.348 479.962 581.608 479.665 581.754 479.29 581.91 478.915 581.988 478.373 581.988 477.665L581.988 473.227 583.395 473.227 583.395 481.524 582.145 481.524ZM585.59 481.524 585.59 473.227 586.856 473.227 586.856 474.477C587.179 473.894 587.475 473.508 587.746 473.321 588.017 473.133 588.319 473.04 588.653 473.04 589.121 473.04 589.6 473.191 590.09 473.493L589.606 474.79C589.262 474.592 588.918 474.493 588.574 474.493 588.272 474.493 587.996 474.587 587.746 474.774 587.507 474.951 587.335 475.206 587.231 475.54 587.074 476.04 586.996 476.587 586.996 477.18L586.996 481.524 585.59 481.524ZM596.34 478.477 597.731 478.665C597.574 479.613 597.184 480.357 596.559 480.899 595.944 481.441 595.184 481.712 594.278 481.712 593.142 481.712 592.225 481.342 591.528 480.602 590.84 479.852 590.496 478.784 590.496 477.399 590.496 476.503 590.642 475.722 590.934 475.055 591.236 474.378 591.689 473.873 592.293 473.54 592.908 473.206 593.569 473.04 594.278 473.04 595.184 473.04 595.923 473.269 596.496 473.727 597.069 474.175 597.434 474.821 597.59 475.665L596.231 475.868C596.095 475.316 595.861 474.899 595.528 474.618 595.205 474.337 594.809 474.196 594.34 474.196 593.632 474.196 593.054 474.451 592.606 474.962 592.168 475.462 591.949 476.264 591.949 477.368 591.949 478.482 592.163 479.295 592.59 479.805 593.017 480.305 593.574 480.555 594.262 480.555 594.814 480.555 595.272 480.389 595.637 480.055 596.012 479.712 596.246 479.186 596.34 478.477ZM604.606 478.852 606.059 479.024C605.83 479.878 605.403 480.54 604.778 481.008 604.163 481.477 603.377 481.712 602.418 481.712 601.199 481.712 600.236 481.337 599.528 480.587 598.819 479.837 598.465 478.79 598.465 477.446 598.465 476.05 598.824 474.967 599.543 474.196 600.262 473.425 601.194 473.04 602.34 473.04 603.444 473.04 604.345 473.42 605.043 474.18 605.751 474.93 606.106 475.988 606.106 477.352 606.106 477.436 606.106 477.561 606.106 477.727L599.918 477.727C599.97 478.644 600.225 479.347 600.684 479.837 601.153 480.316 601.731 480.555 602.418 480.555 602.939 480.555 603.382 480.42 603.746 480.149 604.111 479.878 604.397 479.446 604.606 478.852ZM599.996 476.571 604.621 476.571C604.559 475.873 604.382 475.352 604.09 475.008 603.642 474.467 603.064 474.196 602.356 474.196 601.71 474.196 601.163 474.415 600.715 474.852 600.278 475.279 600.038 475.852 599.996 476.571Z" fill="#000000"/></g></svg>